<svg width="349" height="349" viewBox="0 0 349 349" fill="none" xmlns="http://www.w3.org/2000/svg">
<path fill-rule="evenodd" clip-rule="evenodd" d="M122.023 290.077C150.208 280.418 177.756 307.422 226.193 315.263C274.63 323.103 309.442 260.3 290.18 227.828C270.918 195.355 274.63 152.992 287.341 112.727C300.053 72.4614 283.8 48.493 266.528 38.6806C249.255 28.8682 232.306 25.7929 205.272 27.6387C178.238 29.4845 150.069 37.513 123.717 50.8138C97.3646 64.1145 67.739 93.5897 64.6867 112.49C61.6344 131.391 73.8299 133.239 76.0119 163.134C78.1938 193.029 48.1449 233.001 60.3635 260.114C72.5822 287.227 93.8387 299.737 122.023 290.077Z" fill="#AA4A4A"/>
<path fill-rule="evenodd" clip-rule="evenodd" d="M112.731 289.317L112.578 290.544C112.578 290.544 114.79 290.794 115.737 290.655C116.685 290.516 118.419 288.602 118.419 288.602C118.419 288.602 116.609 288.814 115.737 288.923" fill="#E7EAEE"/>
<path fill-rule="evenodd" clip-rule="evenodd" d="M119.774 329.446L123.257 332.769L179.707 126.409L176.26 121.932L119.774 329.446Z" fill="white"/>
<path fill-rule="evenodd" clip-rule="evenodd" d="M92.6013 331.684C92.6013 331.684 96.727 332.769 100.366 320.278C104.004 307.787 152.261 130.02 152.261 130.02L150.667 126.12L92.6013 331.684Z" fill="white"/>
<path fill-rule="evenodd" clip-rule="evenodd" d="M188.347 21.2781C188.691 20.3895 190.529 21.468 191.463 21.2781C191.427 22.6832 161.712 99.6852 158.965 105.236C158.475 104.867 156.258 103.791 155.768 103.423C156.816 103.135 178.267 47.3845 188.347 21.2781Z" fill="white"/>
<path fill-rule="evenodd" clip-rule="evenodd" d="M217.489 19.5503C212.488 33.6562 189.625 93.8263 187.178 98.7694C186.915 98.5713 185.45 99.9852 184.398 100.083C183.493 100.166 182.984 98.9398 182.758 98.7694C183.789 98.4861 204.567 44.5219 214.838 17.9158C215.007 17.4779 218.103 17.8165 217.489 19.5503Z" fill="white"/>
<path fill-rule="evenodd" clip-rule="evenodd" d="M125.651 255.057L130.872 257.623C130.872 257.623 144.62 237.963 144.62 228.136C144.62 224.219 133.299 221.594 126.834 217.138C123.151 214.601 121.623 210.03 119.569 208.27C117.962 206.894 114.361 206.174 109.323 206.511C108.115 206.591 105.468 208.27 105.468 208.27C105.468 208.27 94.4616 217.978 100.42 225.901C102.204 228.274 109.65 240.45 111.289 248.504C113.452 259.134 112.178 288.738 112.178 288.738C112.178 288.738 114.477 288.715 115.895 288.395C117.313 288.076 120.263 286.915 120.263 286.915C120.263 286.915 119.931 276.854 120.263 272.378C121.126 260.757 122.44 251.469 121.331 244.263C119.028 229.29 110.362 222.554 110.362 222.554L135.645 234.62L125.651 255.057Z" fill="white"/>
<path fill-rule="evenodd" clip-rule="evenodd" d="M130.408 260.23C130.448 261.039 130.182 261.859 129.674 262.49C129.474 261.789 129.419 261.046 129.515 260.323C127.672 260.082 125.874 259.505 124.236 258.626C123.62 260.166 123.131 261.756 122.773 263.375C122.613 264.104 122.513 264.967 123.03 265.506C123.48 265.974 124.21 265.994 124.86 265.983C126.892 265.948 128.954 265.909 130.903 265.334C132.853 264.76 134.712 263.574 135.645 261.769C134.715 260.836 133.34 260.367 132.034 260.537C132.374 261.154 132.289 261.977 131.83 262.511C131.405 261.893 131.265 261.087 131.456 260.362C131.133 260.206 130.759 260.159 130.408 260.23Z" fill="white"/>
<path fill-rule="evenodd" clip-rule="evenodd" d="M115.335 291.107C114.314 291.334 113.095 291.584 112.342 290.857C112.177 292.216 112.136 293.589 112.222 294.955C112.42 295.094 112.68 295.14 112.913 295.078C113.041 295.375 113.087 295.707 113.043 296.027C113.807 296.945 115.265 296.651 116.388 296.245C118.173 295.598 119.958 294.852 121.419 293.64C122.109 293.068 122.763 292.268 122.651 291.378C122.539 290.488 121.201 289.9 120.715 290.654C121.143 291.079 121.342 291.722 121.23 292.314C120.354 291.683 119.478 291.052 118.602 290.42C118.937 291.282 119.271 292.143 119.606 293.005C119.397 293.337 118.845 293.173 118.629 292.845C118.413 292.516 118.378 292.098 118.184 291.757C117.667 290.847 116.357 290.88 115.335 291.107Z" fill="white"/>
<path fill-rule="evenodd" clip-rule="evenodd" d="M124.587 173.716C126.696 172.399 129.261 174.429 130.908 176.293C132.928 178.581 134.949 180.87 136.97 183.158C137.945 176.991 141.725 171.686 145.396 166.635C146.45 165.185 147.536 163.704 149.024 162.703C150.512 161.702 153.376 162.424 154.116 162.058C154.015 160.975 153.084 160.029 152.003 159.91C152.146 158.653 152.742 157.451 153.657 156.577C153.663 155.825 152.479 155.943 151.842 156.342C145.368 160.396 139.574 165.533 134.775 171.476C133.605 172.924 131.81 174.592 130.169 173.714C128.472 172.806 128.964 170.307 129.446 168.443C130.106 165.889 130.273 163.209 129.935 160.592C129.576 157.806 128.652 154.985 129.277 152.246C129.902 149.507 133.034 147.081 135.467 148.486C137.339 149.567 139.938 148.558 141.021 146.688C142.105 144.818 141.885 142.407 140.953 140.457C140.021 138.507 138.468 136.93 136.891 135.452C135.813 134.442 134.644 133.423 133.205 133.091C131.091 132.603 128.715 133.929 128.022 135.985C127.329 138.041 128.416 140.535 130.393 141.427C129.153 141.8 127.758 141.623 126.65 140.952C128.323 141.716 129.041 143.844 128.668 145.644C128.295 147.445 127.068 148.95 125.726 150.207C124.297 151.545 122.691 152.694 120.962 153.613C112.062 158.349 107.758 168.708 105.689 178.575C103.62 188.442 103.029 198.82 98.5671 207.86C99.438 208.738 100.885 208.016 101.993 207.467C107.223 204.878 113.463 207.351 119.285 206.966C120.756 206.868 122.353 206.501 123.245 205.327C123.771 204.633 123.973 203.754 124.162 202.904C124.615 200.869 125.067 198.835 125.52 196.8C125.629 196.309 125.739 195.801 125.645 195.308C125.529 194.694 125.116 194.185 124.719 193.704C122.494 191.013 120.268 188.27 118.766 185.118C117.263 181.966 116.529 178.321 117.431 174.948C118.394 180.116 120.511 185.065 123.583 189.33C125.381 191.827 127.675 194.196 130.654 194.962C134.046 195.835 137.585 194.465 140.73 192.923C148.286 189.218 155.274 184.358 161.376 178.564C160.811 178.743 160.246 178.922 159.682 179.101C160.135 178.216 160.753 177.416 161.494 176.752C160.701 177.153 159.909 177.554 159.116 177.954C159.758 177.029 160.399 176.103 161.041 175.178C159.714 175.675 158.514 176.505 157.58 177.57C157.842 176.554 157.784 175.459 157.417 174.478C156.841 177.409 153.805 179.07 151.098 180.331C148.323 181.624 145.549 182.916 142.774 184.209C140.659 185.194 137.744 186.01 136.328 184.155C133.132 179.966 129.121 176.401 124.587 173.716Z" fill="white"/>
<path fill-rule="evenodd" clip-rule="evenodd" d="M135.205 144.719C135.846 144.719 136.084 144.198 135.745 143.555C135.412 142.913 134.762 142.392 134.285 142.392C133.808 142.392 133.553 142.913 133.722 143.555C133.898 144.198 134.565 144.719 135.205 144.719Z" fill="#FFB61D"/>
<path fill-rule="evenodd" clip-rule="evenodd" d="M140.15 140.996C140.642 140.996 140.828 140.475 140.566 139.833C140.303 139.19 139.691 138.669 139.199 138.669C138.707 138.669 138.521 139.19 138.784 139.833C139.046 140.475 139.658 140.996 140.15 140.996Z" fill="#FFB61D"/>
<path fill-rule="evenodd" clip-rule="evenodd" d="M190.236 140.275L189.505 195.242L252.398 199.285L256.694 197.131L257.423 84.3182C257.445 80.9192 255.481 77.8202 252.398 76.3889V76.3889L206.243 80.3642L190.236 140.275Z" fill="white"/>
<path fill-rule="evenodd" clip-rule="evenodd" d="M124.563 264.197C124.268 264.074 123.947 264.012 123.626 264.015C123.247 263.886 123.47 263.268 123.84 263.115C124.21 262.961 124.674 262.979 124.944 262.684C125.172 262.436 125.172 262.062 125.285 261.746C125.399 261.429 125.765 261.345 126.021 261.562C126.073 262.442 127.17 261.824 127.968 262.306C128.412 262.575 127.671 262.934 127.724 263.368C127.79 263.919 129.049 265.16 128.453 264.942C127.804 264.705 126.894 264.34 126.212 264.451C125.601 264.55 125.212 265.093 124.709 265.454C124.547 265.059 124.496 264.619 124.563 264.197Z" fill="#FFB61D"/>
<path fill-rule="evenodd" clip-rule="evenodd" d="M115.763 294.954C116.045 295.124 116.256 295.41 116.335 295.731C116.017 295.814 115.443 295.144 115.004 295.27C114.559 295.399 114.247 296.322 113.914 296.308C113.566 296.294 114.23 295.544 114.063 295.097C113.913 294.695 112.913 294.604 112.915 294.389C112.916 294.226 113.632 294.244 113.914 293.985C114.095 293.82 113.876 293.353 113.914 293.271C114.063 292.957 114.625 293.271 115.004 293.708C115.412 293.601 115.819 293.493 116.227 293.386C116.403 293.937 115.399 294.207 115.585 294.726L115.763 294.954Z" fill="#FFB61D"/>
<path fill-rule="evenodd" clip-rule="evenodd" d="M159.461 101.688C159.07 102.702 158.544 103.843 157.496 104.131L158.965 105.236C161.712 99.6854 164.096 93.9544 166.094 88.0922C172.807 88.3307 179.532 88.2584 186.239 87.8758L182.736 98.0694C182.499 98.7573 182.707 99.9252 183.386 99.6662C194.063 72.3893 204.608 45.0611 215.021 17.6827C213.244 17.7645 212.563 19.6762 211.886 21.5753C211.203 23.4916 210.524 25.3951 208.73 25.3925L190.542 25.3653C191.113 24.0809 191.427 22.6834 191.463 21.2782C190.529 21.4681 190.047 22.4803 189.704 23.3689L159.461 101.688ZM200.346 51.2412C198.757 55.7177 197.124 60.1786 195.447 64.623C195.18 65.331 194.891 66.0697 194.316 66.5619C193.453 67.3006 192.2 67.2915 191.065 67.2595C185.461 67.1019 179.847 67.3406 174.277 67.9732C174.466 69.1114 175.979 69.3479 177.133 69.3094L191.803 68.8197C192.217 68.8058 192.674 68.806 192.989 69.0748C193.522 69.5284 193.306 70.3819 193.045 71.0312L187.689 84.3855C187.505 84.846 187.304 85.3288 186.912 85.6329C186.442 85.9971 185.803 86.0276 185.209 86.0429L166.865 86.5151C166.965 85.8425 167.306 85.2082 167.812 84.7543C174.374 85.2014 180.988 84.8678 187.472 83.7626C181.041 82.2653 174.267 82.2598 167.833 83.7466L189.162 28.7817C189.34 28.323 189.609 27.7913 190.099 27.7458C196.656 27.137 203.246 26.8819 209.83 26.982C209.494 29.1925 206.586 29.7204 204.35 29.7113L191.641 29.6591C190.734 29.6554 189.476 30.046 189.659 30.9337C189.803 31.6287 190.723 31.7663 191.432 31.7482L207.855 31.3281C206.79 35.0151 205.438 38.619 203.814 42.0963C203.592 42.5706 203.356 43.0564 202.962 43.401C202.278 43.9984 201.288 44.0438 200.38 44.0588L186.243 44.2931C185.621 44.3034 184.953 44.3284 184.453 44.699C183.954 45.0697 183.777 45.9245 184.276 46.2956C184.553 46.5013 184.928 46.493 185.273 46.4759L202.399 45.6224C202.624 47.1594 201.441 48.6226 200.016 49.2423C198.592 49.862 196.981 49.8339 195.429 49.7951L184.908 49.5327C183.462 49.4966 181.42 50.1434 181.782 51.5446C187.971 51.6378 194.163 51.5365 200.346 51.2412ZM190.019 19.3695C179.209 47.0057 168.383 74.6358 157.541 102.26C157.261 102.975 156.401 103.814 155.91 103.222C155.658 102.918 155.791 102.464 155.935 102.097L187.893 20.7631C188.259 19.8315 189.265 18.7116 190.019 19.3695ZM218.006 21.9607L189.45 96.0316C188.95 97.3296 188.219 98.8217 186.843 99.026L217.558 19.4234C218.497 19.6815 218.356 21.0515 218.006 21.9607ZM176.318 65.5239C176.145 65.1505 176.384 64.6904 176.737 64.4777C177.089 64.265 177.519 64.2369 177.93 64.2156C183.209 63.9416 188.498 63.8723 193.783 64.0079C194.259 64.0201 194.39 64.7603 194.06 65.1033C193.729 65.4464 193.202 65.4841 192.726 65.5L177.628 66.0054C177.134 66.0219 176.526 65.973 176.318 65.5239ZM139.817 162.346C141.069 162.295 141.699 160.846 142.04 159.641L150.446 129.872C150.765 128.742 151.087 127.565 150.878 126.409C149.637 127.518 149.127 129.209 148.672 130.809C145.689 141.313 142.737 151.825 139.817 162.346ZM152.429 174.791C152.563 175.188 152.801 175.548 153.113 175.827C151.274 175.824 149.486 176.284 147.695 176.744C146.084 177.158 144.472 177.573 142.819 177.652C142.064 177.688 141 177.203 141.331 176.523C141.477 176.225 141.838 176.113 142.161 176.035C145.52 175.224 148.974 174.806 152.429 174.791ZM124.118 154.681C124.888 157.059 126.515 159.15 128.631 160.48C128.837 159.422 127.94 158.588 127.112 157.819C126.973 157.689 126.836 157.562 126.706 157.436C125.486 156.246 124.733 154.589 124.637 152.888C124.129 153.31 123.914 154.053 124.118 154.681ZM130.966 139.025C131.931 139.025 133.548 140.308 132.761 140.921C131.974 141.535 130.159 139.025 130.966 139.025ZM142.022 180.994L147.373 179.251C147.766 179.123 148.237 178.89 148.222 178.478C145.573 178.662 142.943 179.106 140.38 179.801C139.852 179.944 139.945 180.82 140.429 181.074C140.913 181.328 141.502 181.163 142.022 180.994ZM134.405 136.412C134.821 136.006 137.158 137.508 136.343 138.376C135.926 138.821 133.945 136.86 134.405 136.412ZM130.017 138.351C130.093 138.194 130.17 138.035 130.294 137.894C130.449 137.717 130.694 137.505 130.94 137.293C131.422 136.875 131.91 136.453 131.737 136.277C130.702 136.546 129.792 137.264 129.289 138.208C128.866 139.025 129.524 139.085 129.659 138.88C129.832 138.73 129.924 138.542 130.017 138.351ZM137.487 139.225L137.488 139.225C138.243 139.593 139.088 140.006 139.018 140.781C138.936 141.697 137.847 142.357 137.486 141.511C137.556 141.36 137.704 141.307 137.857 141.253C138.09 141.169 138.335 141.082 138.335 140.643C138.335 140.342 138.05 140.123 137.753 139.895C137.437 139.653 137.107 139.4 137.088 139.025C137.214 139.091 137.349 139.157 137.487 139.225ZM134.452 134.89C133.465 134.991 132.631 135.976 132.727 136.963C132.869 137.076 133.08 136.763 133.316 136.413C133.484 136.163 133.665 135.895 133.842 135.75C134.03 135.595 134.367 135.44 134.679 135.296C135.12 135.093 135.509 134.913 135.354 134.793C135.199 134.808 135.051 134.825 134.903 134.841L134.692 134.864L134.582 134.876L134.452 134.89ZM154.698 194.659C155.009 195.195 154.196 195.664 153.584 195.758C147.959 196.617 142.316 197.354 136.659 197.968C136.503 197.285 136.956 196.579 137.557 196.217C138.157 195.856 138.876 195.761 139.572 195.675L143.101 195.236C146.658 194.793 150.226 194.35 153.811 194.339C154.141 194.338 154.532 194.374 154.698 194.659ZM130.907 176.293C129.261 174.429 126.696 172.399 124.587 173.716C129.121 176.401 133.132 179.966 136.328 184.155C137.744 186.01 140.659 185.194 142.774 184.209L151.098 180.331C153.805 179.07 156.841 177.409 157.417 174.478C157.784 175.459 157.842 176.555 157.58 177.57C158.514 176.505 159.714 175.675 161.041 175.178L159.116 177.954L161.494 176.753C160.753 177.416 160.135 178.216 159.682 179.101L161.376 178.564C155.274 184.358 148.286 189.218 140.73 192.923C137.585 194.465 134.046 195.835 130.654 194.963C127.675 194.196 125.381 191.827 123.583 189.331C120.511 185.065 118.394 180.116 117.431 174.948C116.529 178.321 117.263 181.966 118.766 185.118C120.268 188.27 122.494 191.013 124.719 193.704C125.116 194.185 125.529 194.694 125.645 195.308C125.739 195.802 125.629 196.309 125.52 196.8L124.162 202.904C123.973 203.754 123.771 204.633 123.245 205.327C122.353 206.501 120.756 206.868 119.285 206.966C117.176 207.105 115.011 206.87 112.86 206.636C109.074 206.224 105.328 205.816 101.993 207.467L101.979 207.474C100.872 208.022 99.4342 208.734 98.5671 207.86C101.796 201.318 102.998 194.075 104.2 186.832C104.659 184.067 105.117 181.301 105.689 178.575C107.758 168.708 112.062 158.349 120.962 153.614C122.691 152.694 124.297 151.545 125.726 150.207C127.068 148.95 128.295 147.445 128.668 145.644C129.012 143.984 128.428 142.046 127.023 141.155C128.061 141.656 129.289 141.76 130.393 141.427C128.416 140.535 127.329 138.041 128.022 135.985C128.715 133.929 131.091 132.603 133.205 133.091C134.644 133.423 135.813 134.442 136.891 135.452C138.468 136.93 140.021 138.507 140.953 140.457C141.885 142.407 142.105 144.818 141.021 146.688C139.938 148.559 137.339 149.567 135.467 148.486C133.034 147.081 129.902 149.507 129.277 152.246C128.818 154.255 129.193 156.307 129.567 158.357L129.567 158.357C129.703 159.103 129.839 159.849 129.935 160.592C130.273 163.209 130.106 165.889 129.445 168.443C128.964 170.307 128.472 172.806 130.169 173.714C131.81 174.592 133.605 172.924 134.775 171.476C139.574 165.533 145.368 160.396 151.842 156.343C152.479 155.944 153.663 155.825 153.657 156.577C152.742 157.452 152.146 158.653 152.003 159.91C153.084 160.029 154.015 160.975 154.116 162.058C153.836 162.197 153.251 162.179 152.551 162.159C151.404 162.125 149.948 162.081 149.024 162.703C147.536 163.704 146.45 165.185 145.396 166.635C141.725 171.686 137.945 176.991 136.97 183.158L130.907 176.293ZM126.65 140.952C126.771 141.026 126.896 141.094 127.023 141.155C126.905 141.08 126.78 141.012 126.65 140.952ZM146.059 167.411C148.11 164.532 151.611 161.299 154.637 163.127C155.199 162.256 154.246 161.216 153.522 160.427C153.087 159.951 152.734 159.567 152.845 159.364L152.879 159.303L152.977 159.124L152.978 159.123C154.183 156.933 156.507 152.711 149.51 156.571C144.74 159.203 137.416 166.572 133.638 170.373L133.638 170.374L133.638 170.374L133.638 170.374L133.637 170.375C132.143 171.877 131.205 172.822 131.197 172.696C131.048 170.231 130.981 167.49 130.914 164.75C130.846 162.009 130.779 159.269 130.63 156.804C130.527 155.092 130.44 153.29 131.197 151.751C131.954 150.212 133.866 149.098 135.42 149.825C139.374 151.676 143.657 146.516 142.796 142.236C141.935 137.956 138.168 134.972 134.657 132.376C136.445 130.21 136.849 126.996 135.653 124.454C134.457 121.913 131.722 120.176 128.913 120.173C129.343 121.984 128.974 123.969 127.923 125.506C126.896 127.008 125.346 127.992 123.791 128.98C123.068 129.438 122.345 129.897 121.673 130.409C119.553 132.024 117.817 134.932 119.104 137.266C119.846 138.611 121.289 139.24 122.745 139.875C124.043 140.442 125.352 141.013 126.185 142.099C127.92 144.363 126.697 147.8 124.574 149.705C123.268 150.877 121.705 151.686 120.139 152.497L120.139 152.497L120.139 152.497L120.139 152.497C119.16 153.004 118.18 153.511 117.26 154.108C110.675 158.384 107.989 166.555 105.931 174.132C102.713 185.982 99.9126 197.945 97.5375 209.992L100.839 209.977C97.7144 213.781 97.5714 219.319 98.9813 224.036C100.014 227.491 101.759 230.662 103.503 233.832C104.139 234.989 104.776 236.146 105.378 237.317C109.595 245.52 112.175 254.767 111.382 263.956C110.947 269 109.517 273.897 108.095 278.756L92.6013 331.684C95.7269 322.149 98.995 311.607 102.263 301.065C105.531 290.523 108.799 279.981 111.925 270.445C112.055 270.047 111.99 271.805 111.925 273.564C111.86 275.322 111.794 277.081 111.925 276.682C111.146 279.62 110.222 282.645 109.343 285.527C108.673 287.72 108.029 289.831 107.493 291.757C106.493 295.35 105.554 298.753 104.611 302.172L104.611 302.173C102.241 310.766 99.8427 319.464 96.3602 331.556C101.433 320.491 104.151 308.52 106.837 296.648C107.414 296.646 108.107 296.644 108.801 296.642L108.826 296.642C109.511 296.64 110.194 296.638 110.765 296.636C110.079 295.81 107.493 295.261 107.493 295.261L107.776 293.826C107.776 293.826 111.232 294.415 111.055 293.656C110.703 293.402 108.095 293.005 108.095 293.005C108.095 293.005 110.925 282.721 111.925 279.385L111.232 295.627C111.205 296.256 111.208 296.965 111.655 297.409C112.114 297.865 112.849 297.849 113.492 297.773C115.412 297.548 117.302 297.067 119.096 296.347C120.573 295.754 122.112 294.806 122.872 293.487L128.022 293.64C128.022 293.64 127.757 294.773 127.63 295.317C127.611 295.398 126.198 295.436 124.792 295.473H124.791C123.396 295.51 122.007 295.547 121.988 295.627C121.964 295.73 123.337 295.877 124.703 296.023C126.054 296.168 127.397 296.312 127.373 296.412C126.72 299.194 126.161 301.789 125.697 303.945L125.697 303.946C125.256 305.993 124.9 307.644 124.63 308.685C124.366 309.699 124.061 310.781 123.256 311.45C122.76 311.861 119.641 312.231 117.744 312.456C117.103 312.532 116.602 312.592 116.388 312.631C113.673 313.125 111.341 313.159 109.147 313.191C107.362 313.217 105.669 313.242 103.938 313.513C103.118 313.641 102.686 314.403 102.947 314.659C106.389 314.554 109.688 314.32 112.987 314.086L112.989 314.086C116.288 313.852 119.588 313.618 123.03 313.513C122.956 313.845 122.919 314.121 122.889 314.348C122.815 314.904 122.781 315.165 122.325 315.236C119.305 315.706 116.122 315.949 112.94 316.191C109.758 316.434 106.575 316.677 103.555 317.147C102.559 317.302 101.389 318.637 102.347 318.949L122.094 316.72C120.644 320.828 119.172 325.132 119.774 329.446C130.01 293.503 139.919 257.468 149.5 221.345C144.916 220.785 140.213 221.232 135.817 222.646C139.451 223.679 143.759 225.455 144.214 229.206C144.45 231.153 143.501 233.027 142.581 234.759L130.576 257.355L125.937 254.83L134.812 238.423C135.525 237.103 136.235 235.451 135.423 234.19C134.988 233.515 134.218 233.149 133.487 232.817L109.055 221.695C112.546 223.718 115.115 227.269 115.945 231.218C116.388 233.325 117.394 235.236 118.404 237.152C119.118 238.509 119.834 239.868 120.353 241.302C122.17 246.327 121.445 251.817 120.74 257.156C120.666 257.715 120.592 258.273 120.522 258.828C119.345 268.102 119.117 277.497 119.843 286.817L112.655 288.464C114.044 272.232 115.282 255.108 108.295 240.391C107.427 238.563 106.439 236.792 105.452 235.023C104.087 232.576 102.723 230.131 101.676 227.535C99.8727 223.063 99.0909 217.873 101.069 213.474C103.048 209.076 108.462 206.055 112.897 207.95C114.924 208.816 117.243 208.981 119.372 208.411C124.416 219.188 139.197 224.042 149.649 218.355C150.772 217.744 151.207 216.38 151.543 215.146L160.351 182.802C158.036 184.414 157.486 187.444 156.971 190.288L156.971 190.288L156.971 190.289L156.971 190.289L156.971 190.29L156.971 190.291C156.906 190.648 156.842 191.002 156.774 191.35C156.173 194.47 154.359 198.08 151.182 198.115C145.411 198.178 139.647 198.84 134.012 200.087L134.918 196.398C143.247 193.6 151.045 189.23 157.78 183.588C160.67 181.167 163.592 177.265 161.725 173.99L158.339 175.304C158.749 174.75 158.363 173.815 157.681 173.713C152.644 179.154 145.714 182.808 138.379 183.89C138.8 177.762 142.494 172.413 146.059 167.411ZM123.12 292.97C123.051 293.148 122.968 293.321 122.872 293.487L122.325 293.471C122.325 293.471 122.492 293.186 123.12 292.97ZM121.466 263.031C121.814 265.068 123.885 266.914 126.078 267.199C128.963 267.573 131.747 266.158 134.312 264.785C134.84 264.503 135.384 264.208 135.751 263.735C136.787 262.405 135.841 260.303 134.333 259.548C132.825 258.794 131.038 258.987 129.365 259.198C132.068 258.737 133.229 255.726 134.243 253.093C134.324 252.884 134.404 252.677 134.483 252.474C135.563 249.717 138.531 246.765 141.031 248.351C139.099 254.404 137.421 260.539 136.003 266.734L124.518 268.093C123.142 268.256 121.29 269.193 121.886 270.445L135.51 268.561L130.733 285.963C130.381 287.248 128.913 292.314 128.913 292.314C128.913 292.314 124.605 292.637 123.587 292.845C123.409 292.881 123.254 292.924 123.12 292.97C123.249 292.639 123.329 292.288 123.35 291.915C123.471 289.753 119.952 288.198 119.125 290.2C118.06 289.219 119.231 287.045 120.635 287.394C120.313 279.267 120.592 271.117 121.466 263.031ZM121.466 263.031C121.534 262.398 121.606 261.765 121.682 261.132C121.415 261.756 121.358 262.403 121.466 263.031ZM121.682 261.132C122.127 257.419 122.697 253.722 123.392 250.048L126.671 249.921L121.702 261.087C121.695 261.102 121.688 261.117 121.682 261.132ZM137.832 218.987C134.97 219.372 131.661 219.62 129.6 217.597C129.397 217.398 129.204 217.166 129.15 216.887C129.099 216.63 129.171 216.367 129.242 216.116L133.414 201.373C136.037 201.74 138.702 201.39 141.328 201.041L154.356 199.308C152.99 204.84 151.526 210.348 149.965 215.828C149.807 216.382 149.615 216.982 149.134 217.3C148.829 217.501 148.453 217.555 148.09 217.604L137.832 218.987ZM170.592 138.248C170.394 141.701 170.167 145.268 168.593 148.348C167.019 151.428 166.562 154.223 166.562 154.223L165.331 158.359C161.801 158.104 158.22 158.567 154.871 159.711C158.123 161.13 161.956 161.158 165.228 159.786C163.577 164.149 162.619 168.774 162.401 173.434C167.929 156.874 172.724 140.07 176.767 123.086C178.974 123.498 178.954 126.654 178.366 128.82L124.02 329.095C123.256 331.684 121.738 339.634 127.559 318.949C134.231 295.243 144.714 257.329 155.02 220.055L155.022 220.049L155.024 220.04L155.027 220.029L155.028 220.026C164.419 186.063 173.662 152.634 179.741 130.968C180.213 129.284 180.69 127.062 180.372 125.343C180.053 123.623 178.681 121.963 176.933 121.932C174.799 125.049 173.287 128.59 172.514 132.287L152.112 134.164C153.029 132.602 152.941 130.507 151.897 129.028L143.697 159.875C147.243 152.431 149.797 144.516 151.269 136.403L172.292 133.556C172.357 136.689 167.959 137.328 164.825 137.313C160.238 137.292 155.649 138.226 151.435 140.039C157.862 140.288 164.322 139.684 170.592 138.248ZM123.449 244.147C123.441 244.863 123.67 245.579 124.089 246.159C125.772 245.772 127.51 245.626 129.233 245.727C128.291 246.878 127.503 248.156 126.899 249.516L126.623 248.389L123.532 248.536L122.919 245.839C122.584 244.364 122.247 242.863 122.351 241.355C122.437 240.113 122.819 238.913 123.199 237.727L125.447 230.704L132.722 233.637C133.318 233.878 133.936 234.133 134.366 234.611C134.796 235.089 134.975 235.86 134.595 236.378C132.657 239.025 131 241.877 129.662 244.871C129.453 244.428 129.447 243.895 129.647 243.448C127.567 243.531 125.494 243.765 123.449 244.147ZM126.745 196.462C126.808 195.995 127.374 195.737 127.836 195.829C128.299 195.921 128.671 196.252 129.019 196.57L129.64 195.998C129.996 196.04 130.013 196.549 129.928 196.897C128.507 202.695 126.875 208.441 125.037 214.121L121.331 208.106C122.77 208.302 124.161 207.316 124.89 206.061C125.62 204.806 125.826 203.325 126.019 201.886L126.745 196.462ZM129.674 262.49C130.182 261.859 130.448 261.039 130.408 260.23C130.759 260.159 131.133 260.206 131.456 260.362C131.265 261.087 131.405 261.893 131.83 262.511C132.289 261.978 132.374 261.154 132.034 260.537C133.34 260.367 134.715 260.836 135.645 261.769C134.712 263.575 132.853 264.76 130.903 265.334C128.954 265.909 126.892 265.948 124.86 265.983C124.21 265.994 123.48 265.974 123.03 265.506C122.513 264.967 122.613 264.104 122.773 263.375C123.131 261.756 123.62 260.166 124.236 258.627C125.874 259.505 127.672 260.083 129.515 260.323C129.419 261.046 129.474 261.789 129.674 262.49ZM112.342 290.857C113.095 291.584 114.314 291.334 115.335 291.107C116.357 290.88 117.667 290.847 118.184 291.757C118.274 291.916 118.33 292.092 118.386 292.268C118.45 292.469 118.514 292.67 118.629 292.845C118.845 293.173 119.397 293.337 119.606 293.005L118.602 290.42L121.23 292.314C121.342 291.722 121.143 291.079 120.715 290.654C121.201 289.9 122.539 290.488 122.651 291.378C122.763 292.268 122.109 293.068 121.419 293.64C119.958 294.852 118.173 295.598 116.388 296.245C115.265 296.651 113.807 296.945 113.043 296.027C113.087 295.707 113.041 295.375 112.913 295.078C112.68 295.14 112.42 295.094 112.222 294.955C112.136 293.589 112.177 292.216 112.342 290.857ZM127.872 216.528C126.962 216.277 126.367 215.212 126.631 214.305L131.798 196.517C132.318 196.461 132.849 196.505 133.354 196.646L127.872 216.528ZM141.121 240.864C141.288 240.492 141.454 240.121 141.624 239.753C142.68 237.459 143.872 235.229 145.192 233.077C145.605 234.369 144.969 235.713 144.381 236.957L144.381 236.958L144.319 237.089L144.253 237.229C143.255 239.358 142.589 241.643 142.287 243.976C142.058 245.743 139.85 246.926 138.251 246.137C139.469 244.543 140.296 242.7 141.121 240.864L141.121 240.864ZM121.102 229.041C121.269 229.307 121.233 229.648 121.184 229.958C120.851 232.066 120.174 234.119 119.186 236.011L116.064 227.383C117.558 227.618 119.025 228.021 120.429 228.583C120.685 228.686 120.955 228.807 121.102 229.041ZM141.123 223.574C143.277 222.533 145.798 222.276 148.117 222.861C147.316 224.897 146.788 227.04 146.553 229.214C146.043 229.413 145.718 228.681 145.6 228.147C145.116 225.952 143.307 224.105 141.123 223.574ZM123.877 230.405C123.977 230.748 123.877 231.114 123.778 231.458L121.448 239.518C120.7 238.433 120.94 236.974 121.229 235.689C121.678 233.698 122.174 231.718 122.718 229.751C123.192 229.625 123.74 229.933 123.877 230.405ZM127.984 259.044C127.124 259.006 126.196 258.944 125.533 258.394C124.871 257.843 124.735 256.615 125.49 256.202L128.689 257.87L127.984 259.044ZM115.52 290.478C114.602 290.651 113.658 290.452 112.744 290.253L112.863 289.349C114.428 289.36 115.995 289.154 117.504 288.738C117.336 289.658 116.439 290.304 115.52 290.478ZM140.114 142.415C140.268 142.35 140.445 142.426 140.508 142.586C140.571 142.745 140.497 142.928 140.343 142.993C139.587 143.313 139.122 143.736 138.73 144.323C138.561 144.577 138.326 145.11 138.094 145.638C137.776 146.363 137.461 147.079 137.326 147.044C137.093 146.985 137.678 144.673 138.128 143.998C138.589 143.307 139.253 142.78 140.114 142.415ZM209.615 81.6957L246.531 78.0896C247.4 78.0047 248.561 77.5419 248.35 76.6942C235.583 77.6569 222.829 78.7838 210.091 80.0746C209.248 80.16 208.121 80.9845 208.756 81.5445C208.981 81.7426 209.317 81.7249 209.615 81.6957ZM215.281 112.789C215.291 113.06 215.309 113.353 215.485 113.559C215.727 113.842 216.156 113.844 216.528 113.823L226.773 113.239C227.141 113.218 227.518 113.195 227.855 113.045C228.977 112.543 229.071 111.014 229.011 109.785C228.774 104.928 228.81 100.058 229.12 95.2044C229.162 94.5474 229.482 93.6651 230.127 93.7959L229.971 112.918C229.967 113.336 229.946 113.799 229.654 114.098C229.377 114.382 228.943 114.427 228.546 114.455C226.297 114.612 224.048 114.763 221.799 114.914L214.966 115.373C214.711 115.39 214.432 115.401 214.225 115.251C213.945 115.047 213.919 114.646 213.92 114.299L213.946 97.3789C213.947 96.7619 213.995 96.0473 214.497 95.6884C215.251 96.5924 215.249 97.8857 215.218 99.0625C215.099 103.637 215.12 108.216 215.281 112.789ZM255.659 165.438C255.688 164.677 255.692 163.914 255.694 163.158L255.896 98.3156C255.902 96.5825 255.853 94.6901 254.738 93.3626C254.318 117.955 254.255 142.553 254.549 167.146C254.447 167.773 254.434 168.434 254.438 169.058C254.455 172.058 254.404 176.541 254.353 181.024C254.302 185.507 254.251 189.99 254.268 192.989C254.276 194.255 253.227 195.33 252.039 195.766C250.851 196.201 249.546 196.135 248.283 196.063L187.823 192.619L188.164 171.023C195.351 170.297 202.627 170.452 209.777 171.483C209.372 175.817 209.114 180.165 209.003 184.517C208.345 184.885 204.63 184.869 200.489 184.851C196.488 184.834 192.09 184.815 189.663 185.138C199.275 187.039 209.088 186.773 218.919 186.507C226.248 186.308 233.587 186.109 240.859 186.808C241.177 186.9 241.399 186.409 241.218 186.131C241.038 185.853 240.676 185.769 240.35 185.707L233.535 184.431L233.841 173.894C233.857 173.347 233.884 172.766 234.196 172.316C234.812 171.432 235.97 171.593 237.145 171.756C238.275 171.913 239.422 172.073 240.122 171.309C239.338 176.119 239.737 181.117 241.274 185.742C242.51 153.541 242.968 121.309 242.647 89.086C242.64 88.365 242.598 87.5605 242.077 87.0622C241.538 86.5476 240.701 86.5603 239.958 86.6054L216.36 88.0355C211.554 88.3268 206.571 88.6671 202.344 90.9715L241.343 87.7041C241.277 89.9574 238.303 90.6635 236.05 90.744C224.146 91.1694 212.282 92.7054 200.662 95.3256C203.098 96.2477 205.867 96.257 208.308 95.3512C209.102 95.0568 209.558 96.2474 209.564 97.094L209.661 112.918C209.664 113.456 209.489 114.183 208.951 114.166C203.702 114.003 198.433 114.491 193.303 115.615C193.45 116.443 194.566 116.581 195.404 116.519L209.517 115.471C210.246 115.417 211.192 115.146 211.196 114.416L211.286 96.3641C211.288 95.829 211.307 95.2474 211.646 94.8338C212.039 94.3549 212.724 94.2626 213.341 94.2047L240.661 91.6401L241.856 109.284C241.949 110.65 240.838 111.865 239.559 112.351C238.279 112.837 236.864 112.759 235.498 112.674C235.015 112.644 234.476 112.587 234.165 112.217C233.895 111.896 233.883 111.438 233.883 111.019L233.915 94.2111C233.916 93.7914 233.259 93.669 232.959 93.9631C232.66 94.2571 232.636 94.7237 232.631 95.1434L232.448 111.186C232.444 111.457 232.434 111.715 232.424 111.958C232.367 113.39 232.33 114.305 233.926 114.416C235.792 114.545 239.868 113.932 241.565 113.143L240.843 145.011L234.943 145.178C234.278 145.197 233.546 145.243 233.068 145.705C232.557 146.199 232.516 146.99 232.508 147.7L232.32 163.813C232.317 164.058 232.307 164.292 232.297 164.512C232.243 165.717 232.206 166.533 233.535 166.69C235.107 166.875 238.567 166.416 240.042 165.842C240.434 167.316 240.483 168.879 240.184 170.374L233.576 169.884C233.052 169.845 232.328 169.976 232.324 170.502L232.226 182.858C232.218 183.873 231.804 185.264 230.801 185.111C229.957 184.982 229.77 183.862 229.79 183.008L230.075 171.104C230.091 170.462 229.237 170.235 228.595 170.215L215.385 169.8C215.034 169.789 214.66 169.784 214.362 169.971C213.859 170.285 213.797 170.98 213.788 171.573L213.657 180.838C213.63 182.703 212.974 185.209 211.11 185.12L211.036 171.428C211.033 171.021 211.016 170.572 210.738 170.274C210.501 170.018 210.132 169.941 209.789 169.879C202.87 168.645 195.758 168.503 188.796 169.46C187.855 168.068 187.52 166.28 187.893 164.642C189.558 165.432 191.476 165.42 193.318 165.392L209.362 165.148C209.786 165.142 210.244 165.124 210.576 164.861C211.033 164.498 211.07 163.83 211.069 163.246L211.036 148.554C211.034 147.651 210.99 146.642 210.342 146.012C209.677 145.366 208.635 145.369 207.709 145.413L189.358 146.29C188.805 143.339 188.547 140.334 188.589 137.332C188.698 136.93 188.051 136.683 187.727 136.945C187.402 137.207 187.355 137.676 187.334 138.092C186.411 155.952 186.156 173.846 186.57 191.725C186.611 193.517 188.944 194.14 190.734 194.241L248.109 197.468C249.753 197.56 251.453 197.645 252.996 197.071C254.54 196.497 255.896 195.081 255.861 193.434C255.781 189.677 255.768 184.437 255.755 179.196C255.743 174.175 255.731 169.154 255.659 165.438ZM227.374 166.687L214.66 166.314C214.46 166.308 214.248 166.298 214.085 166.182C213.82 165.995 213.795 165.619 213.795 165.295L213.785 146.828C213.785 146.36 213.81 145.832 214.158 145.519C214.465 145.243 214.92 145.232 215.333 145.236L229.148 145.362C229.368 145.364 229.609 145.374 229.775 145.518C229.977 145.693 229.993 145.996 229.993 146.263L230.005 165.278C230.005 166.395 228.49 166.72 227.374 166.687ZM215.417 146.81C214.946 147.036 214.881 147.669 214.881 148.192L214.894 164.344C214.894 164.539 214.907 164.761 215.059 164.882C215.157 164.96 215.289 164.975 215.414 164.986C219.081 165.32 222.772 165.383 226.448 165.175C227.575 165.111 229.061 164.631 228.962 163.506C228.521 158.477 228.48 153.412 228.84 148.377C228.92 147.246 227.389 146.836 226.256 146.824L216.043 146.721C215.83 146.718 215.609 146.718 215.417 146.81ZM215.68 118.585C215.115 118.501 214.406 118.468 214.115 118.959C213.996 119.161 213.984 119.406 213.975 119.641C213.705 126.822 213.686 134.013 213.919 141.195C214.927 140.851 215.058 139.503 215.024 138.438C214.833 132.373 215.198 126.305 215.563 120.248C219.773 120.682 224.043 120.525 228.21 119.784C228.8 119.679 229.031 120.521 229.009 121.12C228.802 126.785 228.791 132.458 228.974 138.125C229.053 138.434 228.616 138.591 228.298 138.603L216.144 139.083C215.678 139.101 215.571 139.836 215.911 140.156C216.25 140.476 216.769 140.484 217.235 140.472L229.212 140.17C229.441 140.164 229.697 140.146 229.85 139.975C229.985 139.823 229.992 139.6 229.992 139.397L229.997 119.347C229.997 119.122 229.995 118.887 229.89 118.688C229.609 118.154 228.841 118.205 228.248 118.318C224.113 119.111 219.845 119.202 215.68 118.585ZM256.31 85.068C256.217 87.8753 256.105 90.7708 254.92 93.3177L254.366 82.093C254.282 80.3896 253.356 78.0496 251.735 78.58L251.514 189.32C251.51 191.518 251.5 193.755 250.851 195.856C250.15 195.458 250.068 194.499 250.071 193.693L250.477 78.4831C250.478 78.1919 250.481 77.8912 250.598 77.6246C250.882 76.9772 251.724 76.7762 252.423 76.8802C254.067 77.1247 255.333 78.559 255.873 80.1307C256.414 81.7024 256.365 83.407 256.31 85.068ZM209.466 121.866L209.533 137.903C209.534 138.201 209.517 138.541 209.287 138.731C209.127 138.862 208.907 138.883 208.701 138.899L189.925 140.335C189.34 140.38 189.243 141.312 189.689 141.693C190.135 142.075 190.789 142.048 191.373 141.995C192.857 141.859 194.343 141.688 195.829 141.516C200.533 140.974 205.242 140.43 209.92 141.031C210.817 141.146 211.171 139.91 211.176 139.005L211.282 119.451C211.283 119.225 211.27 118.966 211.094 118.824C210.943 118.7 210.726 118.711 210.531 118.729L194.495 120.153C194.075 120.19 193.632 120.236 193.294 120.488C192.956 120.74 192.792 121.274 193.072 121.589L207.982 120.79C208.501 120.762 209.139 120.799 209.371 121.264C209.462 121.447 209.465 121.661 209.466 121.866ZM232.462 138.016L232.553 119.353C232.555 119.058 232.565 118.738 232.751 118.51C232.923 118.299 233.202 118.218 233.465 118.148L238.983 116.671C239.486 116.537 240.053 116.409 240.504 116.671C240.955 116.933 241.018 117.765 240.513 117.894L235.128 119.271C234.758 119.366 234.36 119.478 234.127 119.78C233.897 120.078 233.885 120.484 233.883 120.86L233.789 137.765C233.786 138.204 233.975 138.813 234.405 138.724C236.51 138.285 238.723 138.371 240.788 138.973C240.624 139.857 239.459 140.047 238.56 140.034L233.536 139.962C232.709 139.95 232.458 138.843 232.462 138.016ZM209.129 147.527C209.381 147.737 209.401 148.109 209.402 148.437L209.406 162.533C209.406 163.124 209.291 163.874 208.718 164.021C202.498 163.587 196.254 163.495 190.024 163.745C189.443 163.768 188.94 163.285 188.745 162.737C188.55 162.19 188.593 161.59 188.635 161.01C188.912 157.166 189.027 153.311 188.977 149.457C188.971 148.994 189.014 148.438 189.421 148.217C189.563 148.139 189.729 148.119 189.89 148.1C196.04 147.396 202.242 147.143 208.429 147.346C208.675 147.354 208.94 147.37 209.129 147.527ZM228.851 174.538C228.562 177.227 228.51 179.941 228.697 182.639C228.707 182.792 228.695 183 228.681 183.226C228.648 183.758 228.609 184.393 228.851 184.659C228.424 185.121 219.407 185.053 215.897 184.723C215.575 184.692 215.212 184.636 215.027 184.371C214.896 184.183 214.891 183.937 214.891 183.708L214.881 172.78C214.881 172.384 214.898 171.944 215.175 171.661C215.47 171.36 215.945 171.353 216.366 171.366L226.167 171.672C227.073 171.7 228.122 171.804 228.622 172.56C228.997 173.125 228.924 173.864 228.851 174.538ZM233.754 147.555C233.754 147.284 234.101 147.177 234.371 147.15L240.962 146.484L240.616 163.655C240.608 164.048 240.56 164.512 240.218 164.705C240.059 164.794 239.869 164.802 239.687 164.808L234.943 164.957C234.577 164.968 234.156 164.956 233.926 164.671C233.756 164.461 233.748 164.168 233.748 163.898L233.754 147.555Z" fill="#00160A"/>
</svg>
