<svg width="351" height="351" viewBox="0 0 351 351" fill="none" xmlns="http://www.w3.org/2000/svg">
<path fill-rule="evenodd" clip-rule="evenodd" d="M117 262.35C67.6725 242.408 67.9765 267.442 45.9906 230.526C24.0047 193.61 44.3273 139.22 108.845 122.418C173.364 105.616 263.016 26.33 310.876 158.173C324.325 195.222 298.409 293.904 205.297 293.707C138.643 293.565 150.338 275.454 117 262.35Z" fill="#AA4A4A"/>
<path fill-rule="evenodd" clip-rule="evenodd" d="M198.319 186.066C198.087 185.883 198.147 185.323 198.216 184.946C198.654 182.553 200.769 180.952 202.635 179.457C204.5 177.962 206.429 175.955 206.236 173.528C205.974 170.25 207.485 167.141 208.407 163.992C209.33 160.842 209.493 156.963 207.143 154.737C206.328 153.966 205.29 153.482 204.469 152.718C203.648 151.953 203.059 150.712 203.525 149.679C203.128 149.917 202.73 150.155 202.333 150.394C202.222 148.795 200.406 148.084 199.039 147.318C196.696 146.005 194.982 143.351 195.17 140.609C195.358 137.867 197.75 135.342 200.413 135.496C201.557 135.563 203.025 135.925 203.594 134.9C205.692 131.114 211.135 130.678 213.607 127.139C214.145 126.368 216.744 124.066 216.487 125.694C215.917 129.314 219.088 128.264 220.339 129.779C225.791 136.385 226.211 146.394 225.228 155.88C223.123 176.179 210.577 195.71 198.319 186.066Z" fill="white"/>
<path fill-rule="evenodd" clip-rule="evenodd" d="M213.119 131.611C214.388 130.246 216.239 129.438 218.103 129.438C221.185 131.035 224.232 133.196 227.246 135.92C229.136 135.172 230.468 135.02 231.241 135.464C232.402 136.131 233.113 137.394 233.449 138.689C234.528 142.842 232.233 147.139 229.41 150.369C228.179 151.778 226.807 153.124 226.053 154.837C225.299 156.549 225.333 158.783 226.705 160.055C230.136 163.235 231.281 168.251 231.089 172.925C230.898 177.6 229.565 182.143 228.819 186.762C227.99 191.888 227.887 197.13 228.512 202.284C228.705 203.876 228.984 205.505 229.815 206.877C230.646 208.248 232.151 209.319 233.749 209.201C233.183 210.011 231.818 210.068 231.187 209.307C231.808 209.953 232.43 210.599 233.051 211.245C232.299 211.087 231.548 210.93 230.796 210.772C237.08 214.345 243.588 217.525 250.269 220.285C249.878 218.973 248.502 218.258 247.257 217.689C243.779 216.098 240.301 214.508 236.823 212.918C242.048 213.391 247.093 215.661 250.914 219.256C255.517 223.587 262.968 223.344 267.959 227.221C269.03 228.052 269.993 229.113 270.352 230.42C270.857 232.256 270.049 234.264 268.719 235.627C267.389 236.99 265.609 237.813 263.828 238.487C258.508 240.502 252.788 241.453 247.102 241.267C246.62 240.419 247.102 239.29 247.887 238.711C248.672 238.131 249.672 237.954 250.626 237.749C254.683 236.877 258.567 235.21 261.995 232.871C262.766 232.345 263.602 231.402 263.107 230.611C262.924 230.318 262.597 230.15 262.285 230.001C256.902 227.431 250.888 226.196 244.928 226.435C246.688 226.117 248.447 225.799 250.206 225.481C245.556 222.707 240.668 220.333 235.613 218.393C234.041 217.79 232.128 217.271 230.792 218.296C227.531 220.796 224.27 223.297 221.01 225.797C225.214 225.871 229.399 226.906 233.154 228.799C232.295 230.677 230.363 232.017 228.304 232.164C229.279 231.164 230.253 230.165 231.227 229.165C224.287 224.862 214.387 229.359 207.437 225.072C204.336 223.16 202.281 219.714 198.92 218.31C195.714 216.971 192.062 217.788 188.689 218.622C186.477 219.169 184.152 219.776 182.52 221.366C182.565 219.766 184.086 218.608 185.581 218.038C187.076 217.468 188.736 217.205 189.995 216.216C191.272 215.214 191.924 213.629 192.931 212.356C193.938 211.082 195.723 210.078 197.145 210.86C196.707 207.478 199.58 204.72 201.528 201.921C203.745 198.734 204.931 194.839 204.865 190.956C202.394 192.27 201.283 195.656 202.495 198.179C203.033 199.299 201.961 200.713 200.721 200.801C199.482 200.89 198.344 199.978 197.784 198.868C197.223 197.758 197.121 196.481 197.037 195.241C196.919 193.488 196.821 191.699 197.272 190.001C198.127 186.785 200.809 184.393 203.593 182.57C206.377 180.747 209.433 179.256 211.767 176.884C214.341 174.267 215.867 170.646 215.941 166.975C217.015 171.866 214.594 131.277 213.119 131.611ZM201.796 198.912C201.823 197.9 201.509 196.883 200.917 196.063C200.711 197.078 201.054 198.189 201.796 198.912Z" fill="white"/>
<path fill-rule="evenodd" clip-rule="evenodd" d="M166.945 197.316C164.917 198.741 162.818 200.243 161.638 202.419C160.458 204.594 160.513 207.648 162.438 209.208C167.15 213.027 165.643 220.629 168.456 225.993C169.999 228.936 172.97 231.724 172.137 234.94C171.484 237.46 168.774 238.776 166.359 239.768C165.225 240.234 164.026 240.709 162.81 240.551C161.594 240.393 160.402 239.348 160.552 238.135C160.82 235.965 164.632 235.573 164.7 233.388C164.719 232.774 164.404 232.205 164.099 231.672C162.036 228.068 159.973 224.463 157.91 220.859C155.497 225.896 154.528 231.611 155.147 237.159C155.341 238.9 154.038 240.531 152.454 241.292C150.871 242.052 149.056 242.133 147.299 242.201C145.86 242.256 144.328 242.289 143.092 241.552C141.856 240.814 141.163 238.997 142.094 237.902C142.931 236.916 144.466 237.048 145.687 236.615C148.93 235.465 149.069 231.008 148.608 227.609C147.717 221.042 146.826 214.475 145.935 207.908C145.484 204.583 144.98 201.117 143.054 198.364C136.431 188.894 145.096 174.453 138.834 164.743C136.912 161.762 134.979 158.668 134.335 155.183C133.691 151.699 134.624 147.691 137.514 145.626C139.682 144.075 139.943 141.036 140.239 138.393C140.783 133.553 142.111 128.801 144.156 124.378C139.492 120.988 133.838 118.967 128.075 118.629C128.254 119.679 128.634 120.694 129.189 121.604C125.872 120.362 123.316 117.288 122.708 113.809C122.177 115.038 121.646 116.268 121.115 117.497C116.549 108.192 119.835 97.1376 123.179 87.3299C124.152 84.4741 125.125 81.6184 126.099 78.7626C127.27 75.3266 128.945 71.4039 132.474 70.5076C134.646 69.9559 137.574 72.0414 136.428 73.9608C133.579 73.2474 135.124 76.1138 136.197 74.9009C138.631 72.1498 140.616 68.8806 143.529 66.6251C149.084 62.3248 157.348 62.5987 163.378 66.2076C169.408 69.8165 173.359 76.2168 175.315 82.9491C175.598 83.9234 175.837 84.9999 175.418 85.9242C174.999 86.8485 173.626 87.3656 172.933 86.6231C171.967 85.5885 170.625 87.5442 170.688 88.9559C171.013 96.1913 175.63 102.463 177.777 109.383C179.872 116.131 179.574 123.354 179.256 130.411C178.813 140.224 177.59 167.373 177.192 171.116C176.443 178.169 174.886 185.166 174.982 192.257C175.104 201.368 177.945 210.206 180.94 218.815C182.187 222.398 183.516 226.059 185.995 228.936C188.475 231.813 192.388 233.775 196.092 232.905C193.464 235.532 188.976 235.44 185.714 233.653C182.452 231.867 180.155 228.764 178.069 225.692C176.737 223.733 173.118 227.632 171.545 225.858C173.48 225.454 175.308 224.56 176.814 223.285C173.524 214.629 170.235 205.972 166.945 197.316ZM150.052 94.3554C149.715 94.0149 149.189 93.6773 148.798 93.953C149.229 94.3885 149.101 95.2296 148.559 95.5179C147.914 95.2826 148.144 94.3297 147.963 93.6695C147.731 92.8201 146.746 92.4509 145.886 92.2503C141.47 91.2205 136.335 91.045 133.4 87.5995C133.127 87.2788 132.87 86.9262 132.499 86.7243C131.742 86.3116 130.744 86.6939 130.207 87.3664C129.67 88.0389 129.489 88.9213 129.364 89.7717C128.729 94.0787 129.098 98.5294 130.434 102.674C130.676 103.422 130.961 104.182 131.498 104.757C132.967 106.329 135.507 105.887 137.632 105.527C139.61 105.191 141.618 105.035 143.623 105.06C144.553 105.072 145.469 104.861 146.374 104.651C148.767 104.095 151.16 103.54 153.553 102.984C153.583 99.8003 152.294 96.624 150.052 94.3554Z" fill="white"/>
<path fill-rule="evenodd" clip-rule="evenodd" d="M238.116 281.096L243.81 281.938C244.852 282.092 246.003 282.307 246.636 283.135C246.344 283.39 245.902 283.35 245.516 283.294C243.313 282.979 241.11 282.663 238.907 282.347L241.528 285.358C241.979 285.877 242.466 286.419 243.128 286.625C243.708 286.806 244.541 286.863 244.61 287.457C243.812 287.791 242.864 287.585 242.128 287.133C241.392 286.681 240.826 286.013 240.273 285.356C239.384 284.3 238.495 283.244 237.605 282.189C237.373 281.913 237.138 281.503 237.375 281.232C237.546 281.036 237.856 281.057 238.116 281.096ZM268.607 257.67C268.783 258.429 267.997 259.017 267.351 259.427C262.17 262.714 259.608 268.921 257.356 274.735C257.182 275.185 257.136 275.891 257.602 275.963C258.505 274.264 260.275 273.086 262.153 272.935C260.727 273.929 260.157 275.818 260.068 277.586C259.978 279.354 260.268 281.13 260.106 282.892C259.22 282.806 258.992 281.597 259.003 280.683C259.024 278.873 259.045 277.063 259.067 275.253C255.794 277.268 255.007 281.701 254.546 285.594C254.364 285.87 253.902 285.751 253.742 285.461C253.581 285.17 253.629 284.811 253.685 284.481C255.024 276.559 258.07 268.946 262.542 262.347C258.222 264.662 254.535 268.209 252.001 272.486C251.352 271.277 252.277 269.834 253.193 268.823C257.508 264.064 262.793 260.24 268.607 257.67ZM228.423 253.458C230.704 255.044 232.986 256.63 235.267 258.216C238.885 260.732 242.54 263.279 245.473 266.567C245.271 263.563 246.026 260.502 247.601 257.936C247.788 257.632 248.114 257.293 248.439 257.44C248.669 257.544 248.735 257.832 248.772 258.082C249.418 262.393 250.065 266.705 250.711 271.017C248.854 267.564 247.944 263.607 248.106 259.69C246.976 261.508 246.049 263.605 246.335 265.725C247.033 270.9 254.304 273.41 254.592 278.624C248.254 270.816 241.66 262.833 232.822 258.03C236.937 263.874 241.635 269.306 246.824 274.222C248.289 275.609 249.915 277.239 249.811 279.252C246.359 275.197 240.467 273.4 235.337 274.838C238.285 275.932 241.157 277.228 243.927 278.714C245.553 279.586 247.282 280.695 247.768 282.474C243.09 278.974 237.665 276.476 231.964 275.196C236.28 272.682 241.909 272.59 246.306 274.961C239.664 268.976 234.227 261.8 228.832 254.672C228.563 254.317 228.279 253.88 228.423 253.458ZM200.796 229.594C211.462 231.639 221.946 234.628 232.085 238.515C233.287 238.975 234.521 239.473 235.427 240.386C236.508 241.476 236.98 243.012 237.415 244.484C239.241 250.659 241.066 256.835 242.892 263.01C239.608 256.563 237.261 249.642 235.946 242.53C227.861 245.753 218.852 245.298 210.15 245.044C196.743 244.653 183.319 244.859 169.93 245.661C170.824 245.862 171.719 246.062 172.613 246.262C170.571 246.945 168.365 246.889 166.213 246.813C149.969 246.24 133.75 244.944 117.621 242.933C114.183 242.504 110.568 241.97 107.837 239.841L100.448 261.768C100.027 263.02 98.6304 264.534 97.7275 263.57C96.6675 262.438 94.8341 263.617 93.7866 264.76C89.8063 269.105 85.826 273.45 81.8458 277.794C84.1779 273.759 87.1257 270.08 90.5561 266.923C86.7609 266.854 82.9703 268.551 80.4961 271.425C81.4462 265.677 87.3653 261.221 93.1612 261.89C89.2961 262.423 85.6564 264.446 83.1667 267.446C87.3678 266.9 91.4153 265.218 94.7636 262.626C95.97 261.693 97.8521 261.778 98.9682 262.818C101.296 255.86 103.624 248.901 105.952 241.943C106.289 240.935 106.571 239.672 105.805 238.935C118.906 234.598 132.671 232.267 146.472 232.05C135.502 233.753 124.532 235.456 113.563 237.159C111.876 237.421 109.842 237.985 109.445 239.642C111.337 240.122 113.23 240.602 115.133 241.037C144.258 247.69 174.608 243.582 204.484 243.941C214.811 244.065 225.4 244.693 235.21 241.47C220.38 234.597 204.293 230.44 187.985 229.265C192.142 228.126 196.562 228.782 200.796 229.594ZM77.5409 236.014C82.246 237.138 86.476 239.656 90.6226 242.139C93.6863 243.974 97.0996 246.358 97.3978 249.876L97.406 249.999L97.3204 249.901C94.0329 246.203 90.1464 243.033 85.8557 240.555C88.8042 243.883 91.7528 247.21 94.7013 250.538C95.4638 251.398 96.2562 252.479 96.4619 253.55C96.5026 253.5 96.5662 253.468 96.6388 253.473L96.6162 253.458C96.8322 253.515 96.9443 253.757 96.8315 253.923C96.7158 253.936 96.588 253.91 96.5023 253.847C96.5424 254.299 96.4656 254.746 96.2257 255.171C95.1973 253.502 93.904 251.995 92.4085 250.723C93.5914 253.276 94.7744 255.829 95.9573 258.382C94.7541 257.983 93.6947 257.167 93.0045 256.108C92.8468 256.987 93.2369 257.942 93.9666 258.461C92.7621 259.066 91.3997 259.355 90.0524 259.292C90.5951 259.685 91.1379 260.079 91.6806 260.472L80.4402 260.946C80.7861 260.341 81.2654 259.812 81.8343 259.408C73.0717 258.468 66.667 251.137 70.5932 253.785C77.0182 258.119 85.2531 259.695 92.8334 258.042C88.6375 256.82 84.6946 254.744 81.3189 251.977C83.7121 251.389 86.364 251.967 88.2977 253.487L88.4373 253.6L83.2114 246.33C81.4693 243.906 79.7271 241.483 77.985 239.06C83.1613 244.44 88.3376 249.82 93.5139 255.2C90.7764 247.154 84.9733 240.183 77.5409 236.014ZM89.1861 259.36L89.1328 259.42C88.9621 259.294 88.7911 259.648 88.9435 259.795C89.1323 259.855 89.352 259.804 89.4953 259.668C89.3922 259.566 89.2892 259.463 89.1861 259.36ZM277.697 235.222C281.665 236.084 285.632 236.946 289.6 237.808C290.816 238.072 292.356 238.781 292.152 240.025C292.068 240.532 291.69 240.932 291.317 241.281C289.964 242.546 288.433 243.617 286.786 244.451L290.924 245.488C292.022 245.763 293.176 246.07 293.98 246.875C294.785 247.68 295.049 249.158 294.224 249.941C295.406 251.99 296.507 254.088 297.523 256.226C298.028 257.288 298.474 258.67 297.692 259.542C296.345 256.487 294.999 253.431 293.653 250.376C291.885 251.46 289.722 251.865 287.689 251.492C288.256 250.711 289.305 250.504 290.256 250.399C291.207 250.295 292.243 250.199 292.939 249.535C293.636 248.87 293.598 247.413 292.675 247.16C290.084 246.451 287.494 245.742 284.904 245.033C286.837 243.253 288.903 241.621 291.077 240.156C291.19 239.58 290.494 239.218 289.935 239.067C283.86 237.425 277.676 236.194 271.44 235.384C273.311 234.343 275.61 234.768 277.697 235.222ZM76.823 252.059C77.0886 252.102 77.2991 252.313 77.4974 252.508C79.1723 254.151 81.257 255.308 83.474 255.824C84.5824 256.083 85.8209 256.239 86.5801 257.144C82.8262 257.542 78.9332 255.883 76.4549 252.829C76.3825 252.74 76.3085 252.644 76.2889 252.527C76.2411 252.243 76.5574 252.017 76.823 252.059ZM84.4829 253.122C86.3857 254.626 88.6155 255.716 90.9732 256.297C89.0928 254.761 86.8526 253.666 84.4829 253.122ZM88.8044 252C89.5082 253.791 90.9915 255.262 92.7923 255.955C91.701 254.424 90.346 253.08 88.8044 252ZM125.13 151.783C122.493 153.066 120.079 154.802 118.025 156.89C113.406 161.585 107.448 164.958 101.034 166.508L117.272 157.318C117.014 155.534 114.328 155.799 112.714 156.613C109.914 158.025 107.188 159.597 104.68 161.475C103.192 162.589 101.783 163.809 100.468 165.122C95.3255 170.258 91.7063 176.733 88.978 183.459C85.0573 193.124 82.8492 203.621 83.7898 214.003C84.7304 224.385 88.9983 234.638 96.5796 241.824C96.8454 241.006 97.1112 240.188 97.377 239.37C98.545 239.951 99.9292 240.087 101.188 239.744C99.678 238.868 98.0892 237.913 97.2902 236.365C96.4912 234.817 96.9148 232.514 98.563 231.936C96.9561 230.499 95.8519 228.516 95.4803 226.397C97.2934 226.064 99.1065 225.731 100.92 225.398C99.1416 221.333 99.4972 216.409 101.841 212.64C102.208 212.048 102.801 211.412 103.478 211.582C104.559 211.854 104.876 213.945 105.907 213.524L109.938 207.823L113.841 202.302L113.777 202.397C112.235 204.732 112.174 207.969 113.66 210.345C115.731 208.161 118.548 206.69 121.53 206.238C121.775 207.593 122.02 208.948 122.264 210.303C123.363 209.394 124.543 208.448 125.959 208.265C127.376 208.083 129.035 209.033 129.042 210.456C129.047 211.627 128.019 212.928 128.771 213.828C129.857 213.129 131.024 212.405 132.317 212.409C133.61 212.413 134.981 213.497 134.769 214.767C134.447 216.705 134.124 218.643 133.802 220.581C135.994 219.867 138.982 219.437 140.084 221.454C140.878 222.906 140.052 224.719 138.978 225.979C137.904 227.238 136.533 228.345 136.019 229.917C135.307 228.453 136.647 226.88 137.776 225.705C138.905 224.53 139.918 222.569 138.744 221.439C137.178 219.931 134.481 222.379 132.473 221.536C132.911 218.928 133.349 216.321 133.786 213.713C131.515 213.704 129.245 214.365 127.335 215.59C127.157 213.53 127.282 211.444 127.707 209.419C125.486 209.885 123.303 210.526 121.185 211.336C120.693 210.029 120.488 208.615 120.589 207.223L113.203 211.526C113.01 210.797 112.509 210.154 111.847 209.788C112.518 213.668 113.19 217.548 113.861 221.427C111.762 217.599 110.783 213.169 111.076 208.817C108.778 210.285 107.123 212.718 106.607 215.388C105.145 215.055 103.855 214.041 103.19 212.703C100.502 216.47 100.151 221.758 102.316 225.845C100.562 226.609 98.702 227.129 96.8059 227.388L100.176 232.716C99.2963 232.83 98.4575 233.24 97.827 233.862C98.4659 236.747 100.862 239.171 103.748 239.853C102.396 240.697 100.782 241.118 99.1877 241.043C101.169 241.615 103.034 242.581 104.642 243.868C102.358 243.505 100.147 242.695 98.1709 241.498C99.1603 243.585 100.963 245.277 103.114 246.137C101.83 246.189 100.535 245.886 99.4075 245.273C100.635 246.9 101.256 248.971 101.123 251.001C100.254 249.298 99.3845 247.594 98.515 245.891C98.4197 247.579 98.3244 249.267 98.229 250.955C98.0307 250.718 97.8299 250.483 97.6268 250.249L97.4238 250.019L97.4709 249.907C98.2266 248.008 97.649 245.777 96.5263 244.055C95.3747 242.289 93.7173 240.923 92.1805 239.477C85.6475 233.328 81.071 225.448 76.588 217.688C74.9013 214.769 73.2147 211.849 71.528 208.93C69.2632 205.009 66.9167 200.556 68.0669 196.181C68.2313 195.555 68.4915 194.913 69.0143 194.529C68.2023 195.448 68.818 196.912 69.6519 197.811C70.4859 198.71 71.5747 199.539 71.7496 200.751C73.6285 213.772 81.7234 224.94 89.5688 235.522C79.8808 219.008 81.4566 197.747 89.2974 180.287C93.563 170.789 99.9952 161.678 109.452 157.255C111.558 156.271 113.772 155.538 115.98 154.808C119.03 153.8 122.08 152.791 125.13 151.783ZM247.058 243.991C247.322 244.053 247.633 244.172 247.682 244.444C247.723 244.674 247.549 244.882 247.382 245.042C246.526 245.862 245.505 246.502 244.401 246.908C244.052 247.036 244.062 247.596 244.338 247.847C244.614 248.099 245.017 248.127 245.386 248.142C259.063 248.701 272.739 249.26 286.416 249.82C286.283 250.526 285.367 250.668 284.663 250.648C271.705 250.279 258.751 249.789 245.802 249.176C244.461 249.113 242.645 248.478 242.905 247.134C243.152 245.858 244.962 245.843 245.939 245.007L240.084 244.177C242.344 243.518 244.768 243.453 247.058 243.991ZM167.659 245.823L167.736 245.876C168.106 246.132 168.66 246.072 168.967 245.744C168.575 245.487 168.017 245.521 167.659 245.823ZM163.378 66.2076C169.408 69.8165 173.359 76.2168 175.315 82.9491C175.598 83.9234 175.837 84.9999 175.418 85.9242C175.01 86.8235 173.7 87.3374 172.99 86.6805L172.933 86.6231C171.967 85.5885 170.625 87.5442 170.688 88.9559C171.013 96.1913 175.63 102.463 177.777 109.383C179.872 116.131 179.574 123.354 179.256 130.411C178.813 140.224 178.371 150.037 177.929 159.85C177.759 163.61 177.589 167.373 177.192 171.116C176.443 178.169 174.886 185.166 174.982 192.257C175.104 201.368 177.945 210.206 180.94 218.815C182.187 222.398 183.516 226.059 185.995 228.936C188.475 231.813 192.388 233.775 196.092 232.905C193.464 235.532 188.976 235.44 185.714 233.653C182.452 231.867 180.155 228.764 178.069 225.692C176.737 223.733 173.118 227.632 171.545 225.858C173.479 225.454 175.308 224.56 176.814 223.285C173.524 214.629 170.235 205.972 166.945 197.316C164.917 198.741 162.818 200.243 161.638 202.419C160.458 204.594 160.513 207.648 162.438 209.209C167.15 213.027 165.643 220.629 168.456 225.993C169.999 228.936 172.97 231.724 172.137 234.94C171.484 237.46 168.773 238.776 166.359 239.768C165.225 240.234 164.026 240.709 162.81 240.551C161.594 240.393 160.402 239.348 160.552 238.135C160.82 235.965 164.632 235.573 164.7 233.388C164.719 232.774 164.404 232.205 164.099 231.672C162.036 228.068 159.973 224.463 157.91 220.859C155.497 225.896 154.528 231.611 155.147 237.159C155.341 238.9 154.038 240.531 152.454 241.292C150.87 242.052 149.056 242.133 147.299 242.201C145.86 242.256 144.328 242.289 143.092 241.552C141.856 240.814 141.163 238.998 142.094 237.902C142.931 236.916 144.466 237.048 145.687 236.615C148.93 235.465 149.069 231.008 148.608 227.609L145.935 207.908C145.484 204.583 144.98 201.117 143.054 198.364C136.431 188.894 145.096 174.453 138.834 164.743C136.912 161.762 134.979 158.668 134.335 155.183C133.691 151.699 134.624 147.691 137.514 145.626C139.682 144.075 139.943 141.036 140.239 138.393C140.783 133.553 142.111 128.801 144.156 124.378C139.492 120.988 133.838 118.967 128.075 118.629C128.254 119.679 128.634 120.694 129.189 121.604C125.872 120.362 123.316 117.288 122.708 113.809C122.177 115.038 121.646 116.268 121.115 117.497C116.549 108.192 119.835 97.1376 123.179 87.3299C124.152 84.4741 125.125 81.6184 126.099 78.7626C127.27 75.3266 128.945 71.4039 132.474 70.5076C134.646 69.9559 137.574 72.0414 136.428 73.9608C133.579 73.2474 130.547 74.7902 128.668 77.0395C126.789 79.2888 125.827 82.1385 124.904 84.9165C121.807 94.235 118.678 104.163 121.02 113.697C121.377 113.034 122.057 112.553 122.803 112.436C123.573 114.595 124.755 116.607 126.268 118.333C129.466 117.16 132.995 116.898 136.333 117.585C136.079 117.897 135.825 118.21 135.57 118.522C138.222 120.325 141.293 121.512 144.471 121.961C146.18 119.07 147.889 116.18 149.598 113.289L149.913 112.756C151.433 110.171 152.914 107.501 153.39 104.552C148.194 105.851 142.875 106.66 137.526 106.965C135.195 107.098 132.602 107.046 130.885 105.47C129.841 104.512 129.299 103.135 128.901 101.778C127.462 96.8764 127.483 91.5589 128.962 86.669C126.86 86.5438 126.268 83.4308 127.488 81.7205C128.708 80.0102 130.829 79.2457 132.598 78.1062C137.061 75.2296 139.331 69.875 143.529 66.6251C149.084 62.3248 157.348 62.5987 163.378 66.2076ZM218.103 129.438C222.726 131.834 226.873 135.142 230.237 139.116C230.41 141.26 230.75 143.39 231.253 145.48C231.942 143.472 232.641 141.336 232.181 139.263C231.722 137.189 229.616 135.328 227.584 135.943C228.429 134.906 230.081 134.798 231.242 135.464C232.402 136.131 233.113 137.394 233.449 138.689C234.528 142.842 232.233 147.139 229.41 150.369C228.179 151.778 226.807 153.124 226.053 154.837C225.299 156.549 225.333 158.783 226.705 160.055C230.136 163.235 231.281 168.251 231.089 172.926C230.898 177.6 229.565 182.143 228.819 186.762C227.99 191.888 227.887 197.13 228.512 202.284C228.705 203.876 228.984 205.505 229.815 206.877C230.646 208.248 232.151 209.319 233.749 209.201C233.236 209.936 232.067 210.05 231.383 209.499L231.322 209.447L232.119 210.276C232.43 210.599 232.741 210.922 233.051 211.245C232.3 211.087 231.548 210.93 230.796 210.772C237.08 214.345 243.588 217.525 250.269 220.285C249.878 218.973 248.502 218.258 247.257 217.689C243.779 216.098 240.301 214.508 236.823 212.918C242.048 213.391 247.093 215.661 250.914 219.256C255.518 223.587 262.968 223.344 267.96 227.221C269.03 228.052 269.993 229.113 270.352 230.42C270.857 232.256 270.049 234.264 268.719 235.627C267.389 236.99 265.609 237.813 263.828 238.487C258.508 240.502 252.788 241.453 247.103 241.267C246.62 240.419 247.102 239.29 247.887 238.711C248.673 238.131 249.672 237.954 250.626 237.749C254.683 236.877 258.567 235.21 261.996 232.871C262.766 232.345 263.602 231.402 263.107 230.611C262.924 230.318 262.598 230.15 262.285 230.001C256.902 227.431 250.888 226.196 244.928 226.435L250.207 225.481C245.556 222.707 240.668 220.333 235.613 218.393C234.041 217.79 232.128 217.271 230.792 218.296C227.531 220.796 224.27 223.297 221.01 225.797C225.214 225.871 229.399 226.906 233.154 228.799C232.295 230.677 230.363 232.017 228.304 232.164C229.279 231.164 230.253 230.165 231.227 229.165C224.287 224.862 214.388 229.359 207.437 225.072C204.337 223.16 202.281 219.714 198.92 218.31C195.714 216.971 192.062 217.788 188.689 218.622C186.477 219.169 184.153 219.776 182.52 221.366C182.565 219.766 184.086 218.608 185.581 218.038C187.076 217.468 188.737 217.205 189.995 216.216C191.272 215.214 191.924 213.629 192.931 212.356C193.938 211.082 195.723 210.078 197.145 210.86C196.707 207.478 199.58 204.72 201.528 201.921C203.746 198.734 204.931 194.839 204.865 190.956C202.394 192.27 201.283 195.656 202.495 198.179C203.033 199.299 201.961 200.713 200.721 200.801C199.482 200.89 198.344 199.978 197.784 198.868C197.223 197.758 197.121 196.481 197.038 195.241C196.919 193.488 196.821 191.699 197.272 190.001C198.127 186.785 200.809 184.393 203.593 182.57C206.377 180.747 209.433 179.256 211.767 176.884C214.342 174.267 215.867 170.646 215.941 166.975C217.015 171.866 214.482 177.323 210.055 179.66C206.139 181.726 202.158 184.067 199.706 187.754C197.253 191.44 196.818 196.837 199.863 200.052C199.364 197.44 200.062 194.623 201.723 192.547C203.068 190.866 204.948 189.713 206.807 188.627C211.116 186.108 215.527 183.764 220.026 181.6C219.72 180.44 220.682 179.123 221.879 179.061C220.526 176.905 221.81 173.603 224.265 172.93C223.541 173.854 222.796 174.822 222.556 175.971C222.316 177.119 222.748 178.5 223.828 178.959C221.703 178.973 221.336 182.36 219.384 183.202C215.366 184.934 211.472 186.956 207.744 189.247C207.468 189.416 207.184 189.604 206.918 189.811C206.969 189.81 207.023 189.824 207.079 189.856C207.364 191.806 207.401 193.792 207.188 195.751C207.158 196.024 207.037 196.375 206.761 196.362C206.479 196.349 206.397 195.977 206.397 195.697L206.388 190.73C206.388 190.543 206.438 190.324 206.525 190.147C206.007 190.636 205.634 191.22 205.665 191.916C205.829 195.575 204.759 199.28 202.669 202.288C204.977 200.279 207.285 198.269 209.593 196.259C210.336 195.613 211.925 195.305 211.905 196.289C208.371 198.64 204.779 201.042 202.101 204.337C199.423 207.631 197.75 212.015 198.681 216.158C197.648 215.772 197.557 214.391 197.312 213.315C197.068 212.238 195.758 211.113 195.023 211.936C193.282 213.887 191.541 215.837 189.8 217.787C193.654 215.401 199.109 216.023 202.327 219.216C206.591 223.447 212.403 227.473 218.164 225.774C223.368 224.238 226.41 218.548 231.498 216.659C226.847 205.403 225.866 192.665 228.737 180.83C229.542 177.509 230.651 174.153 230.289 170.756C229.729 165.49 225.773 161.191 224.457 156.061C223.894 157.546 222.438 158.65 220.857 158.789C222.667 156.469 224.478 154.149 226.288 151.829C229.059 148.279 229.681 143.169 227.825 139.066C225.968 134.963 221.707 132.055 217.209 131.845C217.776 132.394 218.343 132.943 218.91 133.492C217.877 133.852 216.843 134.211 215.81 134.571C215.616 133.875 215.422 133.179 215.228 132.483C216.001 131.858 216.773 131.234 217.546 130.61C216.07 130.943 214.594 131.277 213.119 131.611C214.389 130.246 216.239 129.438 218.103 129.438ZM141.635 70.864C137.299 73.9747 133.739 78.0168 130.219 82.0217C129.335 83.0605 131.002 84.3531 132.332 84.664C138.308 86.06 144.515 86.4704 150.623 85.8737C148.991 88.1793 145.666 88.4587 142.865 88.0391C140.065 87.6195 137.188 86.7301 134.465 87.5045C140.033 89.9286 145.991 91.4589 152.042 92.0187L150.001 93.213C154.103 95.4195 155.363 100.906 154.35 105.44C153.336 109.973 150.608 113.9 148.41 117.996C144.459 125.357 142.126 133.573 141.62 141.905C147.227 139.872 149.14 133.001 149.667 127.08C150.193 121.159 150.433 114.496 154.818 110.464C151.485 117.975 150.292 126.413 151.411 134.548C146.739 138.79 142.068 143.033 137.396 147.275C133.975 150.382 135.679 155.965 137.622 160.151C137.858 160.661 138.121 161.2 138.605 161.486C139.806 162.195 141.277 160.766 141.402 159.381C141.527 157.996 140.926 156.635 140.95 155.245C140.973 153.854 142.151 152.265 143.477 152.698C142.039 151.43 143.787 149.175 145.47 148.252C149.94 145.798 154.987 144.398 160.086 144.196C161.624 144.135 162.313 142.306 162.802 140.853C163.29 139.399 164.617 137.722 166.015 138.363C163.487 129.504 168.603 120.284 168.482 111.075C171.586 119.765 163.452 129.914 167.517 138.202C165.935 139.212 164.353 140.223 162.77 141.234C164.097 141.773 165.227 142.78 165.912 144.035C158.164 144.765 150.555 146.939 143.595 150.412C145.053 151.365 144.58 154.06 142.884 154.464C140.369 164.977 141.538 176.328 146.144 186.113C146.907 182.003 149.783 178.34 153.603 176.611C149.634 179.748 147.303 184.598 146.361 189.558C145.42 194.517 145.746 199.625 146.294 204.643C146.889 210.095 147.741 215.519 148.846 220.892C149.599 224.551 150.471 228.325 149.691 231.979C148.912 235.632 145.924 239.129 142.175 239.126C144.666 240.584 147.662 241.167 150.52 240.75C153.222 240.356 154.381 237.024 154.192 234.31C154.002 231.596 153.054 228.821 153.856 226.22C154.255 224.926 155.062 223.794 155.552 222.531C156.43 220.266 156.237 217.755 156.281 215.327C156.381 209.874 157.767 204.449 160.296 199.612C160.733 200.472 160.575 201.596 159.917 202.303C170.61 193.682 176.997 180 176.726 166.298L175.818 167.754C176.633 153.665 177.448 139.576 178.263 125.488C178.465 122.003 178.664 118.484 178.091 115.041C176.46 105.26 168.717 96.6034 169.859 86.7547C167.575 85.9805 165.291 85.2062 163.006 84.432C166.145 84.6811 169.284 84.9301 172.422 85.1792C172.936 85.2199 173.524 85.234 173.88 84.8627C174.245 84.4823 174.191 83.8766 174.079 83.3626C172.669 76.8865 166.368 72.8457 160.613 69.5224C163.788 69.9991 166.777 71.6203 168.902 74.0181C166.962 69.2092 161.743 66.2243 156.55 65.922C151.216 65.6115 145.971 67.7532 141.635 70.864ZM257.888 236.441C255.545 238.337 252.335 238.596 249.366 239.117C248.856 239.207 248.242 239.409 248.159 239.92C248.7 240.256 249.38 240.243 250.015 240.206C255.229 239.905 260.392 238.727 265.219 236.734C264.948 236.11 264.05 236.19 263.396 236.376C262.906 236.514 262.416 236.653 261.927 236.792C261.369 236.95 260.758 237.105 260.224 236.88C259.69 236.654 259.384 235.862 259.821 235.48C259.086 235.38 258.466 235.974 257.888 236.441ZM159.058 206.765C158.09 210.042 157.653 213.526 158.251 216.89C159.126 221.809 162.099 226.054 164.76 230.288C165.577 231.588 166.404 233.068 166.094 234.57C165.759 236.198 164.223 237.256 162.812 238.142C165.152 239.271 167.814 237.566 169.845 235.948C170.153 235.702 170.483 235.422 170.55 235.035C170.612 234.68 170.435 234.331 170.263 234.014C168.306 230.388 166.348 226.763 164.39 223.137L164.346 220.587C164.32 219.105 164.292 217.607 163.929 216.169C163.063 212.737 160.41 210.039 159.058 206.765ZM105.513 236.312C105.681 236.464 105.769 236.692 105.942 236.837C106.208 237.061 106.59 237.033 106.932 237.079C107.273 237.124 107.668 237.35 107.638 237.699C106.668 238.229 105.381 238.078 104.555 237.337C104.304 237.079 104.3 236.615 104.546 236.352C104.792 236.089 105.247 236.07 105.513 236.312ZM245.703 234.276C245.925 234.313 246.212 234.442 246.162 234.662C246.138 234.772 246.033 234.842 245.937 234.898C244.786 235.568 243.479 235.967 242.152 236.053C241.67 236.084 241.261 236.391 240.892 236.709L240.807 236.782C240.415 237.124 239.991 237.486 239.475 237.541C238.959 237.597 238.366 237.171 238.464 236.66C238.552 236.207 239.069 236.004 239.512 235.879C240.312 235.653 241.112 235.427 241.912 235.201C242.019 235.06 242.058 234.869 242.016 234.697L236.255 234.781C236.035 234.784 235.802 234.784 235.616 234.667C235.43 234.55 235.329 234.271 235.471 234.104C238.865 233.65 242.327 233.708 245.703 234.276ZM231.785 213.149C231.18 213.982 231.548 215.228 232.311 215.919C233.074 216.611 234.115 216.887 235.113 217.141C236.06 217.382 237.008 217.623 237.956 217.864C238.213 217.929 238.51 217.988 238.725 217.832C238.856 217.737 238.881 217.533 238.82 217.395L238.811 217.378L239.329 217.679C247.054 222.139 255.194 225.878 263.61 228.831C264.93 229.294 265.23 231.176 264.532 232.388C263.834 233.6 262.51 234.287 261.253 234.899C260.756 235.14 260.336 236.007 260.886 236.049C262.469 235.284 264.295 235.032 266.026 235.342C267.607 235.624 269.153 234.215 269.379 232.625C269.606 231.035 268.765 229.44 267.57 228.367C266.375 227.294 264.863 226.653 263.369 226.063C254.096 222.4 244.229 219.912 235.857 214.498C234.846 213.844 233.33 213.22 232.615 214.188L231.785 213.149ZM181.306 228.347C183.128 230.779 185.724 232.627 188.625 233.554C189.509 233.836 190.455 234.036 191.363 233.842C191.346 233.399 190.781 233.24 190.343 233.164C188.69 232.877 187.143 232.025 186.02 230.784C185.456 230.16 184.989 229.436 184.313 228.935C183.466 228.308 182.331 228.096 181.306 228.347ZM121.028 224.914C121.851 224.96 121.366 226.532 122.063 226.974C122.34 227.15 122.7 227.066 123.024 227.008C124.944 226.662 127.029 227.545 128.121 229.165C128.395 229.572 128.128 230.167 127.699 230.403C127.269 230.638 126.749 230.611 126.262 230.554C125.503 230.466 124.975 231.283 124.712 232.002C124.449 232.722 124.139 233.578 123.399 233.767C122.831 233.912 122.253 233.581 121.807 233.199C121.361 232.818 120.949 232.36 120.392 232.176C119.836 231.991 119.08 232.237 118.986 232.817C118.884 233.445 118.024 233.529 117.394 233.453L115.142 233.18C115.006 232.558 115.887 232.245 116.517 232.328C117.146 232.411 117.948 232.537 118.271 231.989C118.437 231.705 118.397 231.323 118.602 231.066C118.942 230.641 119.617 230.871 120.092 231.133C120.601 231.414 121.11 231.694 121.619 231.975C122.085 232.232 122.589 232.497 123.118 232.444C123.648 232.39 124.158 231.86 123.981 231.356C123.755 230.714 124.437 230.096 125.097 229.932C125.757 229.768 126.487 229.826 127.072 229.48C125.92 228.009 123.633 227.587 122.034 228.551C121.554 228.841 121.107 228.093 121.111 227.531C121.115 226.969 121.087 226.21 120.538 226.099C120.12 226.015 119.785 226.417 119.484 226.72C119.184 227.024 118.612 227.232 118.386 226.87C118.671 225.714 119.843 224.847 121.028 224.914ZM140.14 228.388C140.924 228.679 141.775 229.027 142.15 229.748C142.526 230.468 141.986 231.593 141.159 231.45C141.028 231.271 141.022 231.016 141.145 230.832C141.246 230.68 141.429 230.56 141.434 230.381C141.44 230.197 141.256 230.067 141.092 229.971C140.238 229.469 139.383 228.967 138.528 228.465C138.884 228.028 139.6 228.187 140.14 228.388ZM169.505 230.172L169.509 230.335C169.522 230.642 169.726 230.934 170.01 231.053C170.214 230.7 169.915 230.177 169.505 230.172ZM110.916 227.811C110.24 228.518 109.331 228.951 108.398 229.012C108.649 229.303 108.854 229.642 109.003 230.008C108.374 230.245 107.784 229.592 107.386 229.009C107.231 228.783 107.077 228.458 107.246 228.245C107.313 228.161 107.414 228.122 107.512 228.09C108.609 227.72 109.781 227.624 110.916 227.811ZM173.853 186.872C172.147 189.977 170.13 192.912 167.841 195.619C167.419 196.118 167.704 196.87 167.993 197.455C172.483 206.532 174.552 216.666 179.238 225.644C179.642 226.418 180.141 227.247 180.976 227.51C181.81 227.772 182.923 226.989 182.596 226.18C177.531 213.62 173.013 200.382 173.853 186.872ZM110.726 217.954C110.945 218.107 110.944 218.441 110.928 218.719C110.829 220.493 111.161 222.293 111.884 223.894C112.127 224.433 112.913 224.259 113.327 223.855C113.741 223.452 114.081 222.877 114.634 222.778C115.219 222.672 115.773 223.195 115.958 223.797C116.142 224.398 116.05 225.05 115.957 225.675C115.9 226.055 115.819 226.477 115.523 226.697C115.226 226.917 114.684 226.684 114.768 226.309L115.098 224.831C115.141 224.64 115.182 224.43 115.102 224.253C114.966 223.951 114.555 223.922 114.273 224.07C113.992 224.219 113.781 224.486 113.516 224.666C112.668 225.244 111.472 224.745 110.878 223.879C110.285 223.013 110.138 221.899 110.009 220.835C109.488 222.615 109.318 224.512 109.514 226.366C109.25 226.64 108.879 226.166 108.799 225.783C108.286 223.318 108.668 220.654 109.848 218.465C110.035 218.118 110.412 217.736 110.726 217.954ZM126.36 222.087C125.112 222.588 124.065 223.558 123.481 224.753C123.352 225.019 122.894 224.922 122.773 224.653C122.652 224.383 122.763 224.07 122.901 223.809C123.26 223.129 123.805 222.545 124.463 222.135C123.691 222.078 122.92 222.02 122.148 221.963C123.25 220.851 125.327 220.912 126.36 222.087ZM116.684 220.24C117.245 220.324 117.674 220.762 118.03 221.193C117.672 221.228 117.329 221.386 117.073 221.632C117.517 222.097 117.96 222.562 118.404 223.027C117.19 223.146 115.949 222.321 115.619 221.176C115.465 220.643 116.122 220.156 116.684 220.24ZM248.49 175.319C252.239 186.928 254.278 199.072 254.523 211.253C256.877 209.174 259.927 207.873 263.077 207.605C261.422 208.186 260.36 209.798 259.772 211.43C259.184 213.062 258.944 214.807 258.27 216.407C263.434 214.825 269.087 214.832 274.248 216.426C269.823 217.688 265.645 219.785 262.006 222.57C261.373 222.218 261.924 221.271 262.506 220.842C264.855 219.111 267.463 217.721 270.219 216.733C265.835 215.87 261.218 216.184 256.995 217.632C257.77 215.009 258.432 212.353 258.98 209.676C255.959 211.08 253.199 213.028 250.875 215.394C250.272 214.854 251.149 214.007 251.772 213.488C253.446 212.093 253.515 209.613 253.405 207.455C252.977 199.1 251.862 190.733 249.306 182.757C249.545 191.748 247.698 200.787 243.947 208.985C243.772 209.366 243.175 209.746 243.044 209.349C243.16 208.895 243.277 208.441 243.393 207.987C242.294 206.589 241.773 204.761 241.974 203.003C240.01 205.325 238.303 207.857 236.892 210.541C236.27 210.703 236.216 209.661 236.52 209.103C238.182 206.058 240.283 203.248 242.742 200.783C243.01 202.937 243.278 205.091 243.545 207.244C247.871 197.413 249.349 186.383 247.76 175.782C247.816 175.466 248.176 175.237 248.49 175.319ZM123.803 217.526C124.057 217.678 124.113 218.105 123.836 218.217C123.388 218.399 123.461 219.005 123.57 219.452C123.679 219.899 123.595 220.545 123.108 220.572C122.684 220.595 122.471 220.097 122.447 219.699C122.424 219.301 122.412 218.818 122.041 218.626C120.873 219.317 119.705 220.007 118.537 220.698C118.2 220.324 118.566 219.764 118.951 219.433C120.065 218.474 121.449 217.793 122.924 217.479C123.218 217.417 123.549 217.374 123.803 217.526ZM228.825 215.666C228.928 215.837 228.706 216.155 228.636 215.953L228.634 215.933C228.514 215.928 228.404 215.79 228.384 215.62C228.532 215.544 228.723 215.495 228.825 215.666ZM69.3525 199.366C69.2712 200.64 69.2732 201.92 69.3584 203.195C69.438 204.386 69.6605 205.702 70.606 206.435C70.9067 206.668 71.4424 206.767 71.5917 206.417C71.6282 206.332 71.6302 206.237 71.6309 206.144C71.6458 204.148 71.2671 202.149 70.5227 200.296C70.317 199.784 69.8754 199.184 69.3525 199.366ZM142.145 178.571L141.488 184.034C141.281 185.763 141.073 187.505 141.203 189.241C141.376 191.533 142.132 193.736 142.904 195.901C143.389 197.262 143.925 198.683 145.02 199.629C144.378 196.072 144.533 192.374 145.471 188.883C145.554 188.575 145.644 188.262 145.639 187.943C145.63 187.45 145.398 186.993 145.183 186.549C143.902 183.904 143.052 181.052 142.677 178.138C142.513 177.886 142.181 178.272 142.145 178.571ZM200.917 196.063C200.711 197.078 201.054 198.189 201.797 198.912C201.823 197.9 201.509 196.883 200.917 196.063ZM215.748 125.818C214.981 129.192 211.259 130.647 208.334 132.357C206.255 133.573 204.381 135.16 202.819 137.025C202.449 137.468 201.767 137.135 201.238 136.922C199.585 136.257 197.581 137.312 196.83 138.969C196.079 140.626 196.432 142.658 197.404 144.189C198.375 145.72 199.885 146.809 201.472 147.629C201.97 147.388 201.818 146.562 201.383 146.214C200.949 145.865 200.367 145.776 199.905 145.467C199.476 145.18 199.182 144.724 198.925 144.267C198.158 142.903 197.609 141.223 198.2 139.769C198.792 138.315 200.98 137.627 201.885 138.898C203.263 140.832 200.142 143.854 201.569 145.75C201.433 144.82 201.958 143.829 202.79 143.443C202.735 145.182 202.68 146.922 202.625 148.661C203.042 148.218 203.621 147.943 204.219 147.902C204.278 149.498 204.46 151.09 204.762 152.656C205.126 152.419 205.295 151.908 205.149 151.491L215.485 160.968C213.234 159.917 211.132 158.527 209.268 156.854C211.128 160.381 209.314 164.643 208.207 168.491C207.269 171.749 206.862 175.168 207.008 178.562C206.341 177.851 205.182 178.377 204.418 178.974C201.96 180.896 199.875 183.321 198.319 186.066C198.129 185.736 198.147 185.323 198.216 184.946C198.654 182.553 200.769 180.952 202.635 179.457C204.5 177.962 206.43 175.955 206.236 173.528C205.974 170.25 207.485 167.141 208.408 163.992C209.33 160.842 209.493 156.963 207.143 154.737C206.328 153.966 205.29 153.482 204.469 152.718C203.649 151.953 203.059 150.712 203.525 149.679C203.128 149.917 202.73 150.155 202.333 150.394C202.222 148.795 200.406 148.084 199.039 147.318C196.696 146.005 194.982 143.351 195.17 140.609C195.358 137.867 197.75 135.342 200.413 135.497C201.557 135.563 203.026 135.925 203.594 134.9C205.692 131.114 211.135 130.678 213.607 127.139C214.145 126.368 214.954 125.335 215.748 125.818ZM139.034 163.32L138.971 163.451C139.173 163.499 139.375 163.547 139.577 163.595C139.842 163.313 139.783 162.756 139.415 162.636C139.047 162.516 138.697 163.13 139.034 163.32ZM206.956 149.562C206.995 150.134 207.178 150.697 207.486 151.19C207.484 150.837 208.077 150.742 208.334 150.999C208.591 151.255 208.592 151.65 208.577 152.003C209.766 151.879 210.613 152.997 211.503 153.753C213.578 155.512 216.673 155.513 219.455 155.363C220.223 155.322 221.246 155.457 221.364 156.176C220.058 156.618 218.634 156.617 217.248 156.549C215.082 156.441 212.885 156.172 210.909 155.325C208.932 154.479 207.183 152.986 206.492 151.041C206.294 150.484 206.344 149.659 206.956 149.562ZM208.506 147.223C209.293 149.3 212.144 150.385 214.209 149.392C214.578 149.215 214.928 148.98 215.335 148.907C216.018 148.784 216.682 149.138 217.319 149.404C218.217 149.779 219.22 150 220.18 149.811C221.139 149.622 222.034 148.955 222.261 148.045C222.32 147.81 222.341 147.552 222.503 147.368C222.666 147.184 223.045 147.164 223.124 147.392C223.585 148.708 222.56 150.185 221.206 150.686C219.853 151.187 218.316 150.921 216.959 150.426C216.504 150.26 216.036 150.065 215.55 150.1C215.061 150.135 214.627 150.397 214.179 150.589C212.103 151.482 209.405 150.735 208.148 148.921C207.941 148.622 207.765 148.278 207.795 147.92C207.826 147.562 208.131 147.207 208.506 147.223ZM229.865 145.562C229.743 146.148 229.821 146.774 230.085 147.311C230.495 147.122 230.742 146.632 230.651 146.19L230.655 146.188C230.648 145.804 230.24 145.48 229.865 145.562ZM215.36 144.421C215.707 144.47 215.988 144.765 216.235 145.056C216.734 145.645 217.197 146.275 217.62 146.941C216.39 147.287 215.097 147.314 213.857 147.021C213.475 146.93 213.318 146.338 213.459 145.912C213.6 145.487 213.934 145.198 214.251 144.932C214.582 144.655 214.956 144.365 215.36 144.421ZM214.657 146.202L214.775 146.262L215.593 146.077C215.684 145.928 215.719 145.732 215.687 145.553C215.278 145.316 214.714 145.672 214.657 146.202ZM199.309 139.624C198.848 140.098 198.757 140.852 198.907 141.504C199.17 142.648 200.06 143.581 200.213 144.746C200.533 144.656 200.674 144.258 200.653 143.917C200.631 143.577 200.499 143.25 200.485 142.909C200.438 141.769 201.669 140.59 201.025 139.661C200.646 139.115 199.77 139.151 199.309 139.624ZM223.118 135.528C224.425 135.619 225.443 136.76 226.15 137.929C226.721 138.873 227.199 140.023 226.875 141.091C226.44 142.529 224.835 143.085 223.45 143.436L221.992 143.806C221.604 143.904 221.2 144.003 220.812 143.907C220.275 143.776 219.881 143.305 219.525 142.86C218.803 141.958 218.039 140.932 218.091 139.75C218.151 138.374 219.286 137.353 220.37 136.594C221.199 136.013 222.126 135.459 223.118 135.528ZM212.563 137.408C213.809 138.287 214.609 139.835 214.263 141.28C213.917 142.724 212.233 143.834 210.761 143.372C209.412 142.949 208.017 142.483 207.013 141.523C206.008 140.564 205.529 138.958 206.305 137.821C206.739 137.184 207.489 136.796 208.259 136.607C209.722 136.247 211.347 136.55 212.563 137.408ZM223.228 137.141C222.409 137.25 221.57 137.303 220.8 137.618C220.029 137.934 219.319 138.574 219.154 139.432C218.941 140.542 219.667 141.585 220.35 142.457C220.67 142.866 221.255 142.865 221.752 142.792C223.261 142.567 224.723 141.989 226.001 141.109C225.354 140.951 224.707 140.792 224.06 140.634C224.147 140.222 224.683 140.202 225.081 140.218C225.479 140.234 226.023 139.968 225.878 139.574C225.266 139.38 224.623 139.293 223.985 139.318C223.797 139.325 223.576 139.364 223.493 139.543C223.428 139.682 223.475 139.846 223.504 139.998C223.696 141.014 222.789 142.086 221.815 141.995C220.841 141.903 220.126 140.679 220.484 139.715C220.841 138.75 222.151 138.369 222.923 139.004C223.096 138.84 223.079 138.505 222.89 138.362C223.459 137.948 224.206 137.821 224.869 138.025C224.947 137.649 224.65 137.28 224.306 137.158C223.962 137.036 223.588 137.093 223.228 137.141ZM208.784 137.703C207.829 137.824 206.702 138.45 206.875 139.357C206.996 139.994 207.77 140.366 208.44 140.278C209.11 140.189 209.676 139.761 210.15 139.299L208.166 139.456C207.907 139.477 207.525 139.356 207.619 139.124C207.645 139.059 207.707 139.014 207.767 138.975C208.627 138.423 209.87 138.496 210.653 139.143C211.419 139.386 212.157 139.929 212.29 140.69C212.423 141.451 211.64 142.308 210.877 142.057C210.81 142.622 211.717 142.798 212.233 142.515C213.475 141.835 213.591 139.992 212.688 138.93C211.784 137.869 210.203 137.525 208.784 137.703ZM208.288 140.611C208.188 141.368 209.03 142.091 209.805 141.913C209.577 141.329 209.065 140.852 208.449 140.651L208.288 140.611ZM210.207 140.987L211.031 141.644L211.056 141.525C211.404 141.345 211.43 140.789 211.1 140.58C210.77 140.37 210.245 140.61 210.207 140.987ZM221.948 139.834C221.513 139.877 221.26 140.529 221.548 140.877L221.464 140.884C221.729 141.253 222.364 141.195 222.556 140.779C222.747 140.363 222.383 139.79 221.948 139.834ZM130.207 87.3664C129.67 88.0389 129.489 88.9213 129.364 89.7717C128.729 94.0787 129.098 98.5294 130.434 102.674C130.676 103.422 130.961 104.182 131.498 104.757C132.967 106.329 135.507 105.887 137.632 105.527C139.61 105.191 141.618 105.035 143.623 105.06C144.553 105.072 145.469 104.861 146.374 104.651C148.767 104.095 151.16 103.54 153.553 102.984C153.583 99.8003 152.294 96.624 150.051 94.3554C149.715 94.0149 149.189 93.6773 148.798 93.953C149.229 94.3885 149.101 95.2297 148.559 95.5179C147.914 95.2826 148.144 94.3297 147.963 93.6695C147.731 92.8201 146.746 92.4509 145.886 92.2503C141.47 91.2205 136.335 91.045 133.4 87.5995C133.127 87.2788 132.87 86.9262 132.499 86.7243C131.742 86.3116 130.744 86.6939 130.207 87.3664ZM161.949 74.249C164.508 75.4435 166.78 77.3036 168.507 79.6158C168.741 79.9282 168.975 80.2872 168.945 80.6828C168.891 81.4016 168.066 81.7124 167.393 81.8555C166.2 82.109 165.006 82.3624 163.813 82.6159C163.377 82.7085 162.69 82.5089 162.869 82.0813C164.306 81.1607 166.029 80.7415 167.706 80.9049C167.84 80.614 167.679 80.2718 167.502 80.0076C166.916 79.135 166.113 78.4527 165.321 77.7824C164.034 76.6935 162.747 75.6046 161.46 74.5156C161.487 74.2912 161.758 74.1434 161.949 74.249ZM152.55 70.7145C153.674 71.233 154.08 72.577 154.284 73.7763C154.411 74.5213 154.507 75.2843 154.382 76.0296C154.163 77.3342 153.265 78.4733 152.126 79.184C150.986 79.8947 149.626 80.2096 148.277 80.2819C145.152 80.4493 141.976 79.3168 139.694 77.2215C138.701 76.3095 138.835 74.6317 139.67 73.5787C140.505 72.5257 141.841 71.9814 143.155 71.6278C144.642 71.2274 146.174 71.0145 147.701 70.8025C148.749 70.6569 149.8 70.5112 150.859 70.4758C151.433 70.4567 152.03 70.4745 152.55 70.7145ZM140.084 74.9556C139.74 75.5552 140.307 76.2508 140.827 76.7132C141.847 77.619 143.124 78.5927 144.455 78.2455C145.347 78.0127 146.305 77.2193 147.049 77.754C146.986 78.0425 146.648 78.1815 146.349 78.2191C146.05 78.2567 145.724 78.2472 145.479 78.4201C145.235 78.593 145.199 79.0484 145.489 79.1313C146.433 79.4018 147.312 78.6068 147.983 77.9038C148.655 77.2007 149.619 76.4595 150.52 76.8456C150.639 76.8968 150.764 76.9885 150.765 77.1162C150.767 77.3026 150.53 77.3823 150.344 77.4231C149.353 77.6406 148.467 78.2807 147.962 79.1433C149.282 78.9547 150.466 78.2715 151.611 77.6021C152.421 77.1287 153.31 76.547 153.474 75.6379C152.342 75.965 151.165 76.1423 149.986 76.1633C147.517 76.2071 145.116 77.6947 142.709 77.1553C142.1 77.0188 141.681 76.4888 141.314 75.994C141.694 75.6376 142.302 75.9314 142.799 76.103C143.295 76.2746 144.092 76.0121 143.907 75.5298C143.325 75.2872 142.742 75.0446 142.16 74.802C141.457 74.5093 140.458 74.3039 140.084 74.9556ZM145.627 75.1881C145.455 75.2116 145.263 75.2572 145.172 75.4024C145.04 75.6124 145.22 75.9025 145.458 75.9826C145.696 76.0628 145.957 75.9982 146.2 75.9333C146.801 75.773 147.402 75.6127 148.003 75.4524C147.25 75.1712 146.425 75.0794 145.627 75.1881ZM151.126 74.1552C150.205 74.494 149.244 74.8592 148.597 75.5854C150.039 75.3405 151.506 75.2407 152.968 75.2881C153.485 75.0626 153.292 74.2085 152.773 73.987C152.253 73.7656 151.657 73.9601 151.126 74.1552ZM151.864 72.1261C151.352 72.1668 150.896 72.4414 150.417 72.6243C149.058 73.1439 147.541 72.9182 146.084 72.8414C144.804 72.7739 143.513 72.8286 142.257 73.0758C141.582 73.2087 140.792 73.5304 140.707 74.1994C141.858 73.6704 143.199 73.8592 144.468 73.9508C147.34 74.1582 150.254 73.8002 152.984 72.9044C152.973 72.4019 152.376 72.0854 151.864 72.1261ZM131.611 72.2894C131.271 72.4395 130.92 72.6476 130.785 72.9927C130.649 73.3377 130.87 73.8244 131.242 73.8141C132.369 73.0283 133.793 72.6773 135.158 72.849C135.591 72.9034 136.032 72.5531 136.076 72.1211C134.638 71.6118 133.005 71.6733 131.611 72.2894ZM146.486 66.3925L146.489 66.443C146.064 66.292 145.541 66.5253 145.37 66.9414C146.071 66.8927 146.764 66.7424 147.421 66.4965C147.419 66.1114 146.811 66.1847 146.486 66.3925ZM155.447 64.8494C155.161 64.9791 155.497 65.5116 155.738 65.312L155.745 65.3342C155.961 65.1617 155.699 64.7358 155.447 64.8494Z" fill="#00160A"/>
</svg>
