<svg width="337" height="337" viewBox="0 0 337 337" fill="none" xmlns="http://www.w3.org/2000/svg">
<path fill-rule="evenodd" clip-rule="evenodd" d="M188.445 297.596C202.972 297.708 217.496 297.05 231.954 295.622L231.991 296.071C229.015 296.354 226.038 296.616 223.063 296.925C213.877 297.888 204.653 298.099 195.431 298.338C188.627 298.485 181.829 297.81 175.186 296.329C167.25 294.605 159.154 294.041 151.099 293.164C135.628 291.48 120.284 289.047 105.269 284.85C104.087 284.52 102.719 284.326 101.765 283.772C99.3991 282.399 96.6689 281.821 94.4595 280.079C93.2832 279.152 91.593 278.987 90.3745 277.855C87.0678 274.786 82.9671 272.953 79.0981 270.739C73.1308 267.324 67.0544 263.836 62.722 258.403C54.9425 248.648 48.0585 238.238 44.1902 226.24C40.187 213.825 39.6922 201.283 43.4371 188.577C45.0489 183.105 46.2791 177.567 49.3486 172.664C50.9849 170.16 52.786 167.769 54.7401 165.504C57.0266 162.747 58.9035 159.686 61.6445 157.261C65.4371 153.904 69.2359 150.597 73.3434 147.609C77.6574 144.472 79.1874 139.695 80.1681 134.63C81.3805 128.373 81.9012 121.992 83.6915 115.835C88.6979 98.6162 98.6085 85.0888 113.364 74.8529C120.812 69.6855 128.705 65.3173 136.423 60.6382C143.669 56.2455 151.27 52.4166 158.472 47.9789C174.747 37.9551 192.24 37.833 210.182 40.729C218.147 42.015 225.695 44.8285 233.164 47.8718C241.321 51.1954 249.612 54.1725 257.078 59.001C270.504 67.6862 281.055 78.8256 287.319 93.7556C290.337 100.945 293.345 108.139 294.816 115.829C296.343 123.35 296.521 131.084 295.34 138.667C293.821 147.941 291.055 156.936 289.466 166.188C289.173 167.958 289.036 169.751 289.057 171.545C289.082 176.285 288.448 181.03 288.93 185.759C289.513 191.478 290.418 197.166 290.987 202.886C291.801 211.629 291.695 220.433 290.67 229.153C289.75 237.369 288.146 245.493 285.873 253.44C284.559 258.196 282.668 262.773 280.245 267.069C279.092 269.08 278.583 271.809 275.946 272.781C271.49 280.202 263.822 283.524 256.856 287.734C253.803 289.579 250.419 290.734 247.215 292.246C244.606 293.477 241.887 293.405 239.247 293.947C232.047 295.429 224.692 295.825 217.371 296.397C207.756 297.15 198.114 297.386 188.445 297.596Z" fill="#357ACB"/>
<path fill-rule="evenodd" clip-rule="evenodd" d="M168.319 0.303202C168.107 0.361974 167.774 0.321998 167.807 0.105371C167.933 0.0405707 168.075 -0.0261061 168.212 0.0103327C168.349 0.0467716 168.438 0.245296 168.328 0.334578L168.319 0.303202Z" fill="#00160A"/>
<path fill-rule="evenodd" clip-rule="evenodd" d="M169.394 123.541L169.918 123.759C172.758 124.93 174.906 125.586 176.363 125.729C177.909 125.881 180.165 125.601 183.134 124.889L183.076 125.626C182.591 132.074 182.61 136.942 183.134 140.229C183.677 143.64 184.964 146.607 186.995 149.128C184.713 151.681 181.276 154.254 185.516 166.175C188.394 174.267 183.506 202.91 183.076 226.981C182.873 238.372 185.252 248.84 186.995 255.434C191.158 271.187 197.902 284.636 205.345 290.768C209.063 293.831 215.413 296.844 213.485 297.575C199.245 302.967 144.461 296.62 144.236 293.838C144.029 291.284 158.775 291.614 160.861 280.025C164.898 257.607 157.869 217.285 158.068 212.332C158.656 197.702 163.029 179.954 168.5 166.677C168.704 166.183 170.193 166.093 172.195 166.175L172.333 165.613C173.613 160.333 173.833 156.718 172.993 154.767C172.02 152.507 168.705 150.343 163.046 148.274C165.072 147.052 166.575 144.529 167.556 140.707L167.658 140.298C168.579 136.481 169.158 130.896 169.394 123.541Z" fill="white"/>
<path fill-rule="evenodd" clip-rule="evenodd" d="M171.401 203.94C172.004 196.575 171.969 193.742 172.993 186.424C173.29 184.302 172.847 166.858 169.162 169.646C167.782 170.691 168.332 173.02 167.672 174.62C162.201 187.897 158.656 197.702 158.068 212.332C157.766 219.846 157.261 227.396 157.868 234.892C158.943 248.176 169.548 226.603 171.401 203.94Z" fill="white"/>
<path fill-rule="evenodd" clip-rule="evenodd" d="M180.976 234.328C179.513 216.79 183.08 199.281 184.936 181.78C185.532 176.155 185.943 170.386 184.532 164.909C183.777 161.981 182.504 159.136 182.443 156.113C182.383 153.09 184.034 149.707 186.995 149.128C181.206 142.153 179.83 131.791 183.598 123.541C183.853 128.306 184.107 133.072 184.362 137.838C184.498 140.375 184.697 143.09 186.264 145.086C187.831 147.083 191.301 147.742 192.806 145.697C194.4 143.531 197.867 143.72 200.061 145.273C202.255 146.825 203.558 149.308 205.029 151.56C207.595 155.488 210.875 158.927 214.566 161.819C228.335 172.608 236.304 189.915 237.413 207.399C238.051 217.454 227.287 240.493 227.236 256.005C227.198 267.466 237.116 273.246 240.513 274.786C243.046 275.934 245.802 276.578 248.238 277.921C250.675 279.264 252.855 281.571 252.97 284.356C253.086 287.173 251.104 289.623 249.014 291.511C240.77 298.957 228.89 302.15 218.035 299.837C213.998 298.977 210.08 297.381 206.794 294.878C202.375 291.511 199.304 286.695 196.58 281.848C188.352 267.205 182.372 251.075 180.976 234.328Z" fill="white"/>
<path fill-rule="evenodd" clip-rule="evenodd" d="M156.401 76.1403C158.02 67.9904 161.56 60.3623 165.07 52.8238C166.798 49.1134 170.496 46.3807 174.568 45.8062C173.298 46.7064 171.932 47.7482 171.617 49.2669C171.302 50.7856 172.87 52.6158 174.261 51.9138C180.201 48.9147 188.09 50.4031 192.512 55.3569C194.006 57.0301 195.105 59.0072 196.191 60.9662C199.84 67.545 203.606 74.6713 202.78 82.1388C202.535 84.3614 202.07 87.0801 203.866 88.426C204.734 89.0767 204.469 90.4172 204.097 91.433C200.303 101.807 194.436 111.427 186.937 119.568C184.469 122.248 181.41 124.944 177.756 124.888C175.432 124.852 173.295 123.69 171.268 122.559C167.202 120.29 163.09 117.987 159.711 114.793C156.331 111.6 153.706 107.369 153.401 102.744C153.17 99.2538 154.236 95.6011 152.994 92.3291C152.375 90.6987 151.218 89.2965 150.716 87.627C150.213 85.9574 150.695 83.7441 152.361 83.2037C155.087 82.3195 155.846 78.9377 156.401 76.1403Z" fill="white"/>
<ellipse cx="190.967" cy="102.448" rx="3.14534" ry="3.14534" fill="#FFB61D"/>
<path fill-rule="evenodd" clip-rule="evenodd" d="M131.196 296.713C132.177 295.818 133.103 294.973 132.68 293.838C130.04 294.064 127.754 296.399 127.617 299.01C127.481 301.621 129.51 304.175 132.113 304.668C151.978 308.429 172.419 309.208 192.519 306.97C197.361 306.431 202.815 305.326 205.345 301.218C204.576 300.193 203.003 300.892 201.881 301.6L201.481 301.857C197.523 304.35 192.695 305.042 187.984 305.426L187.102 305.494C169.441 306.814 151.617 305.989 134.16 303.043C131.837 302.651 128.846 301.268 129.426 299.015C129.658 298.116 130.443 297.4 131.196 296.713ZM184.385 138.251L183.598 123.541C179.83 131.791 181.206 142.153 186.995 149.129C184.034 149.707 182.383 153.09 182.443 156.113C182.486 158.228 183.122 160.256 183.758 162.286C184.032 163.158 184.305 164.03 184.532 164.909C185.943 170.386 185.532 176.155 184.936 181.78L184.855 182.53C184.4 186.718 183.852 190.905 183.304 195.094C181.594 208.161 179.884 221.237 180.976 234.328C182.372 251.075 188.352 267.206 196.58 281.848C199.304 286.695 202.375 291.511 206.794 294.878C210.08 297.381 213.998 298.977 218.035 299.837C228.89 302.15 240.77 298.957 249.014 291.511C251.104 289.623 253.086 287.173 252.97 284.356C252.855 281.571 250.674 279.264 248.238 277.921C246.82 277.139 245.294 276.594 243.767 276.049C242.67 275.658 241.572 275.266 240.513 274.786C232.519 271.162 227.337 262.111 228.25 253.364C223.743 258.08 226.205 266.32 231.072 270.662C234.209 273.462 238.03 275.246 241.862 277.035C243.974 278.021 246.088 279.008 248.093 280.168C249.254 280.839 250.485 281.721 250.71 283.045C250.902 284.172 250.293 285.272 249.634 286.204C244.945 292.833 236.833 296.226 228.839 297.574C223.598 298.458 217.995 298.558 213.204 296.249C209.056 294.249 205.927 290.649 203.2 286.916L202.846 286.428C189.191 267.46 182.02 243.888 182.793 220.509C183.044 212.921 184.101 205.368 185.158 197.823C186.668 187.039 188.175 176.275 187.32 165.457L201.784 154.827C202.828 154.086 204.472 153.486 205.105 154.579C207.177 158.157 210.342 160.872 213.503 163.584C214.6 164.524 215.696 165.464 216.746 166.44C228.457 177.325 234.715 193.392 235.259 209.392C235.804 225.392 230.969 241.279 223.2 255.266C221.197 258.871 216.097 258.829 212.013 258.308L211.905 258.294C211.581 258.251 211.251 258.188 210.994 257.99C210.436 257.561 210.47 256.742 210.597 256.029L210.63 255.854C213.137 243.353 215.539 230.671 214.806 217.941C214.074 205.211 209.88 192.238 200.856 183.251C203.764 189.081 206.303 195.095 208.454 201.246C210.132 206.047 211.58 210.959 212.189 216.009C213.222 224.566 211.824 233.098 210.423 241.654C209.575 246.828 208.726 252.01 208.412 257.213L208.406 257.326C208.365 258.081 208.384 258.901 208.883 259.46C209.319 259.948 210.008 260.101 210.65 260.228L210.813 260.259C215.593 261.185 221.59 261.547 224.104 257.397C233.174 242.422 238.522 224.883 237.413 207.399C236.304 189.915 228.335 172.608 214.566 161.819L214.221 161.546C210.671 158.712 207.515 155.365 205.029 151.56C204.771 151.166 204.519 150.764 204.266 150.362C203.074 148.467 201.87 146.553 200.061 145.273C197.867 143.72 194.4 143.531 192.806 145.697L192.732 145.793C191.191 147.721 187.807 147.051 186.264 145.086C184.782 143.198 184.523 140.666 184.385 138.251ZM163.351 148.587C169.016 141.565 171.019 131.762 168.561 123.091L166.355 137.288C165.943 139.883 165.412 142.567 163.721 144.564C161.932 146.679 158.372 147.562 156.381 145.634L156.283 145.544C154.094 143.573 150.612 145.261 148.19 147.102L147.976 147.267C140.31 153.275 132.781 159.607 126.843 167.317C120.229 175.906 115.799 185.93 111.79 196.002L111.051 197.871C108.528 204.301 106.174 210.93 106.047 217.821C105.916 224.989 108.619 232.596 114.576 236.614C117.726 238.739 117.563 243.331 117.052 247.088L115.043 261.86C114.277 267.548 113.637 273.492 115.758 278.808C118.498 285.676 125.471 290.15 132.689 291.85C139.618 293.483 146.844 292.959 153.947 292.34L165.356 291.338C166.176 291.264 167.028 291.151 167.674 290.652C168.314 290.157 168.64 289.368 168.899 288.603C171.761 280.138 169.529 271.07 166.977 262.357L165.539 257.499C162.911 248.503 160.805 239.292 160.462 229.932C159.975 216.633 163.049 203.503 166.261 190.569L174.187 158.752C174.855 156.07 173.272 153.235 171.041 151.594C168.959 150.063 166.409 149.35 163.89 148.721L163.351 148.587ZM144.393 153.089C145.81 151.922 147.896 150.784 149.332 151.928C155.174 156.581 162.089 159.89 169.387 161.524C170.422 161.755 170.527 163.131 170.355 164.206L170.324 164.382C168.935 171.542 167.012 178.638 165.09 185.727C161.185 200.135 157.288 214.512 157.909 229.32C158.369 240.275 161.302 250.937 164.416 261.476L165.661 265.668C167.501 271.904 169.203 278.605 167.018 284.702C166.495 286.162 165.693 287.614 164.354 288.403C163.307 289.02 162.055 289.161 160.845 289.289L153.879 290.025C147.059 290.74 140.104 291.36 133.444 289.779C126.511 288.134 119.836 283.617 117.603 276.873C115.983 271.981 116.864 266.71 117.72 261.588C117.776 261.255 117.832 260.923 117.886 260.591L117.983 259.999C118.97 253.907 119.527 247.745 119.648 241.574C127.511 250.432 134.263 260.268 139.695 270.783C140.086 271.54 141.235 271.19 141.961 270.742L142.52 270.396C145.503 268.547 148.498 266.588 150.584 263.784C152.8 260.805 153.781 256.606 152.009 253.345L141.206 233.467C137.318 226.302 133.369 218.566 134.272 210.484C134.85 205.321 137.365 200.617 139.951 196.086L146.591 184.504L145.941 185.206C139.445 192.253 133.147 200.218 132.159 209.697C131.42 216.783 133.781 223.811 136.745 230.311L137.034 230.939C140.229 237.823 144.05 244.396 147.935 250.922L149.393 253.368C150.981 256.027 150.279 259.564 148.502 262.102C146.84 264.476 144.403 266.167 141.969 267.763L141.465 268.092L136.74 260.03C132.602 252.979 128.321 245.888 122.352 240.303C121.288 239.307 120.169 238.357 119.05 237.408C116.244 235.027 113.441 232.648 111.509 229.551C106.462 221.461 108.729 210.983 112.009 201.988L112.211 201.439C119.027 183.09 129.258 165.554 144.393 153.089ZM220.473 264.423L207.478 261.611C206.738 261.457 205.884 261.359 205.345 261.856C205.466 262.643 206.319 263.067 207.116 263.346L207.298 263.408C211.516 264.797 215.868 266.205 220.319 265.949C220.847 265.919 221.527 265.712 221.521 265.205C221.516 264.744 220.941 264.524 220.473 264.423ZM184.227 168.492L184.016 166.677C181.425 167.114 178.782 167.255 176.157 167.095L176.079 167.091C175.308 167.043 174.496 166.993 173.818 167.349C173.117 167.718 172.704 168.715 173.234 169.297C173.582 169.679 174.165 169.728 174.688 169.75L174.932 169.76C178.105 169.891 181.431 169.949 184.227 168.492ZM150.448 149.492C150.004 148.167 151.61 146.915 153.004 147.056C154.188 147.176 155.19 147.893 156.17 148.594C156.206 148.62 156.241 148.645 156.276 148.67L156.691 148.963C159.958 151.225 163.861 152.31 167.747 153.239L169.078 153.553C171.112 154.029 171.486 156.668 171.387 158.788L171.374 159.021C171.362 159.215 171.345 159.422 171.224 159.574C170.981 159.882 170.499 159.792 170.125 159.671L169.737 159.545C163.274 157.443 156.78 155.006 151.497 150.75C151.065 150.403 150.624 150.016 150.448 149.492ZM174.321 45.9822L174.568 45.8062C170.496 46.3807 166.798 49.1134 165.07 52.8238C161.56 60.3623 158.02 67.9904 156.401 76.1403C155.846 78.9377 155.087 82.3195 152.361 83.2037L152.258 83.2396C150.675 83.836 150.224 85.9922 150.716 87.627C150.991 88.5404 151.462 89.3738 151.933 90.2083C152.323 90.8991 152.714 91.5907 152.994 92.3291C153.789 94.4221 153.639 96.671 153.488 98.9333C153.403 100.208 153.318 101.486 153.401 102.744C153.706 107.369 156.331 111.6 159.711 114.793C162.763 117.678 166.413 119.836 170.087 121.898L171.268 122.559C173.295 123.69 175.432 124.852 177.756 124.888C181.41 124.944 184.469 122.248 186.937 119.568L187.299 119.173C194.624 111.117 200.364 101.64 204.097 91.433C204.469 90.4172 204.734 89.0767 203.866 88.426C202.352 87.2913 202.444 85.1806 202.658 83.2141L202.78 82.1388C203.585 74.8678 200.035 67.9203 196.48 61.4867L196.01 60.6396C194.982 58.7884 193.923 56.9371 192.512 55.3569C188.09 50.4031 180.201 48.9147 174.261 51.9138C172.87 52.6158 171.302 50.7856 171.617 49.2669C171.911 47.8462 173.126 46.8428 174.321 45.9822ZM156.141 91.4201C156.641 88.4224 157.144 85.4108 157.034 82.4131C158.83 87.4607 164.885 90.5718 170.065 89.1089C170.615 88.9537 171.152 88.7548 171.689 88.556C172.557 88.2348 173.424 87.9142 174.337 87.7795C175.815 87.5614 177.547 87.9884 178.254 89.2971L178.327 89.4266C180.386 93.0128 185.731 93.2868 189.557 91.6019C191.533 90.7317 193.312 89.4979 195.09 88.2637C196.796 87.0799 198.502 85.8958 200.385 85.0319C200.697 86.1343 200.406 87.2746 200.141 88.3177C199.908 89.2294 199.695 90.0668 199.919 90.7395C200.061 90.545 200.195 90.3551 200.323 90.1739C201.143 89.011 201.715 88.2007 202.469 88.7708C203.341 89.4297 203.279 91.2436 202.469 92.1756C202.182 92.5062 201.843 92.7993 201.507 93.0912C200.893 93.6223 200.285 94.1496 199.998 94.8913C196.308 104.429 190.548 113.169 183.225 120.339C182.327 121.218 181.371 122.096 180.186 122.52C177.663 123.423 174.943 122.059 172.614 120.737L171.496 120.098C164.769 116.22 157.771 111.534 155.813 104.136C154.713 99.9802 155.424 95.7144 156.141 91.4201ZM177.3 91.9397L177.558 91.7635C177.295 90.403 175.113 90.5061 174.057 91.4407C172.244 93.0449 172.009 96.077 173.63 97.863C175.25 99.6491 178.485 99.7753 180.182 98.0564C180.218 97.3025 179.23 96.9006 178.453 96.9751C178.209 96.9986 177.963 97.0464 177.718 97.0941C177.184 97.198 176.653 97.3015 176.141 97.1517C174.987 96.8141 174.601 95.3055 175.07 94.2322C175.498 93.2522 176.396 92.5622 177.3 91.9397ZM154.175 84.3746L154.572 84.3733C155.15 84.3805 155.942 84.4583 155.813 85.0319C155.395 86.8789 155.205 89.0327 155.104 90.5089L155.018 91.8614C154.772 91.9565 154.066 90.9871 153.659 90.4289C153.576 90.3148 153.505 90.2179 153.454 90.1507L153.401 90.0845C153.293 89.8507 153.148 89.5742 152.989 89.2709C151.984 87.3557 150.42 84.3746 154.175 84.3746ZM160.657 68.2286C160.975 67.1683 161.337 66.0418 162.202 65.3455C163.067 64.6493 164.602 64.6769 165.087 65.6727C166.225 68.0065 168.831 69.2431 171.342 69.945C178.759 72.0179 187.039 70.816 193.55 66.721C194.817 65.9241 196.588 66.4575 197.614 67.5447C198.554 68.5413 199.008 69.8805 199.348 71.213L199.438 71.576C200.2 74.7099 200.673 77.9129 200.852 81.1321C200.88 81.6435 200.891 82.1939 200.607 82.6212C200.435 82.8792 200.174 83.0625 199.919 83.2397L199.523 83.5145C198.395 84.2912 197.228 85.0381 195.909 85.3981C194.436 85.8004 192.711 85.6322 191.602 84.5876L191.471 84.4675C188.66 81.9391 184.114 81.544 180.914 83.5743C180.503 83.8353 180.105 84.134 179.707 84.4327C178.688 85.198 177.669 85.9628 176.426 86.0909C174.568 86.2822 173.066 85.0327 171.57 83.789C171.042 83.3496 170.515 82.911 169.973 82.5369C166.977 80.4681 162.746 80.3436 159.632 82.2326C157.399 80.6269 157.951 77.2327 158.74 74.6071L160.657 68.2286ZM193.746 79.4245L184.063 78.6309C183.51 78.5887 182.926 78.5743 182.462 78.85C181.966 79.1454 181.777 79.9169 182.262 80.2285C182.45 80.3494 182.688 80.3732 182.915 80.3934L192.736 81.2644C194.089 81.3742 195.713 81.3179 196.359 80.2212C195.691 79.6103 194.678 79.501 193.746 79.4245ZM171.609 79.739C171.757 79.1719 171.428 78.5913 171.039 78.1458C168.776 75.5502 163.939 75.8349 162.012 78.6773C161.637 79.2305 161.636 80.2859 162.315 80.2427C164.171 77.8905 168.35 77.8639 170.237 80.1922C170.609 80.651 171.462 80.3061 171.609 79.739ZM198.156 78.0296C198.314 77.8687 198.263 77.2138 197.822 76.9626C197.495 76.7768 196.571 76.687 196.417 77.0055C196.069 77.7046 197.673 78.5227 198.156 78.0296ZM198.107 75.6633C198.273 75.2567 197.488 74.1159 197.037 74.1141C196.639 74.1125 196.145 75.2739 196.409 75.6565C196.68 76.0484 197.959 76.0278 198.107 75.6633ZM195.361 75.0053C195.903 74.925 196.335 73.7338 195.909 73.4199C195.486 73.1076 194.255 73.4349 194.121 73.8252C193.981 74.2276 194.78 75.0915 195.361 75.0053ZM162.429 73.6025C162.991 74.3847 164.409 74.2425 164.804 73.3643C165.2 72.4861 164.368 71.3277 163.41 71.4238C162.453 71.5198 161.867 72.8203 162.429 73.6025ZM195.925 71.5954C196.546 71.8602 197.474 71.795 197.528 71.15C197.478 70.2873 196.529 70.1518 195.909 70.2574C195.414 70.3419 195.423 71.3813 195.925 71.5954ZM194.406 71.5744C194.855 71.3249 194.737 69.9658 194.236 69.7943C193.694 69.6086 192.234 69.9759 192.319 70.86C192.403 71.7441 193.896 71.8578 194.406 71.5744ZM164.265 71.0915C164.807 71.684 165.967 71.4284 166.209 70.6634C166.452 69.8984 165.65 69.0209 164.867 69.1934C164.083 69.366 163.724 70.499 164.265 71.0915ZM162.655 69.3277C163.088 68.9612 163.15 68.3028 162.898 67.9577C162.389 67.2611 161.963 67.2642 161.615 67.6072C161.182 68.0345 161.161 68.7543 161.335 69.4983C161.4 69.7769 162.215 69.701 162.655 69.3277ZM187.115 103.673C185.765 105.442 183.75 106.71 181.548 107.174C181.49 107.186 181.432 107.198 181.373 107.21C180.919 107.302 180.452 107.396 180.101 107.688C179.705 108.017 179.572 108.709 179.989 109.012C180.222 109.181 180.539 109.174 180.827 109.148C184.58 108.811 188.063 106.377 189.619 103.005C189.51 102.472 188.766 102.289 188.265 102.521C187.826 102.724 187.527 103.123 187.236 103.512C187.196 103.566 187.156 103.62 187.115 103.673Z" fill="#00160A"/>
<path fill-rule="evenodd" clip-rule="evenodd" d="M197.732 205.037C198.71 204.418 199.867 205.636 200.144 206.771C200.42 207.906 200.457 209.272 201.405 209.939C202.375 210.62 203.678 210.139 204.837 209.914C205.996 209.689 207.596 210.127 207.592 211.324C207.591 211.619 207.481 211.902 207.368 212.174C206.365 214.587 204.942 216.821 203.185 218.74C203.556 220.288 204.124 221.788 204.871 223.189C205.371 224.127 204.251 225.253 203.201 225.204C202.151 225.155 201.277 224.418 200.426 223.792C199.574 223.167 198.511 222.599 197.513 222.937C196.653 223.228 196.141 224.092 195.578 224.813C195.014 225.534 194.133 226.212 193.274 225.919C192.234 225.564 192.089 224.138 192.247 223.037C192.454 221.595 192.856 220.181 193.439 218.848C193.85 217.906 193.175 216.813 192.335 216.233C191.495 215.654 190.478 215.361 189.684 214.719C188.889 214.077 188.38 212.844 188.989 212.019C189.284 211.618 189.769 211.415 190.238 211.259C191.802 210.739 193.469 210.54 195.109 210.678C195.736 209.163 196.363 207.648 196.99 206.133C197.162 205.718 197.355 205.276 197.732 205.037V205.037Z" fill="#FFB61D"/>
<path fill-rule="evenodd" clip-rule="evenodd" d="M151.497 150.75C151.065 150.403 150.624 150.016 150.448 149.492C150.004 148.167 151.61 146.915 153.004 147.056C154.188 147.176 155.19 147.893 156.17 148.594C156.344 148.719 156.517 148.843 156.691 148.963C160.331 151.483 164.762 152.543 169.078 153.553C171.187 154.046 171.511 156.866 171.374 159.021C171.362 159.215 171.345 159.422 171.224 159.574C170.981 159.882 170.499 159.792 170.125 159.671C163.534 157.539 156.886 155.091 151.497 150.75ZM150.584 263.784C152.8 260.805 153.781 256.606 152.009 253.345L141.35 233.732C137.416 226.493 133.357 218.666 134.272 210.484C134.887 204.984 137.701 200.006 140.457 195.201L146.591 184.504C139.871 191.723 133.18 199.902 132.159 209.697C131.396 217.011 133.936 224.264 137.034 230.939C140.628 238.684 145.015 246.034 149.393 253.368C150.981 256.027 150.279 259.564 148.502 262.102C146.726 264.64 144.063 266.397 141.465 268.092L137.236 260.876C132.942 253.549 128.56 246.111 122.352 240.303C121.288 239.307 120.169 238.357 119.05 237.408C116.244 235.027 113.441 232.648 111.509 229.551C106.359 221.296 108.825 210.555 112.211 201.439C119.027 183.09 129.258 165.554 144.393 153.089C145.81 151.922 147.896 150.784 149.332 151.928C155.174 156.581 162.089 159.89 169.387 161.524C170.479 161.768 170.536 163.287 170.324 164.382C168.935 171.542 167.012 178.638 165.09 185.727C161.185 200.135 157.288 214.512 157.909 229.32C158.412 241.292 161.868 252.913 165.286 264.407C165.357 264.644 165.428 264.882 165.498 265.119C167.398 271.509 169.267 278.426 167.018 284.702C166.495 286.161 165.693 287.614 164.354 288.403C163.307 289.02 162.055 289.161 160.845 289.289L154.714 289.937C147.627 290.685 140.376 291.424 133.444 289.779C126.511 288.134 119.836 283.617 117.603 276.873C115.983 271.981 116.864 266.71 117.72 261.587C117.809 261.056 117.898 260.527 117.983 259.999C118.97 253.907 119.527 247.745 119.648 241.574C127.511 250.431 134.263 260.268 139.695 270.783C140.086 271.54 141.235 271.19 141.961 270.742C145.125 268.788 148.367 266.763 150.584 263.784Z" fill="white"/>
<path fill-rule="evenodd" clip-rule="evenodd" d="M201.935 152.07C201.987 151.565 201.695 151.096 201.415 150.672C200.594 149.429 199.733 148.148 198.467 147.365C197.201 146.582 195.408 146.446 194.315 147.458C192.214 149.404 189.769 150.978 187.129 152.083C185.393 152.809 184.518 154.864 184.59 156.749C184.662 158.634 185.483 160.398 186.289 162.103C186.43 162.399 186.616 162.732 186.939 162.788C187.209 162.835 187.464 162.664 187.685 162.502C192.435 159.025 197.185 155.547 201.935 152.07Z" fill="white"/>
<path fill-rule="evenodd" clip-rule="evenodd" d="M89.5189 84.13C89.7158 83.8843 89.8024 83.5684 89.7584 83.2568C89.7162 82.9421 89.548 82.6579 89.2923 82.4692C89.2923 82.4692 86.0667 80.2312 85.8759 80.3145C85.6851 80.3978 88.6064 83.403 88.6064 83.403C83.124 90.2014 73.2532 91.4775 66.219 86.2972C59.1849 81.1169 57.4854 71.3198 62.3646 64.0771L83.7287 80.2213C83.9878 80.4121 84.3526 80.357 84.5436 80.0982C84.7346 79.8394 63.0604 63.1428 63.0604 63.1428C62.8075 62.9515 62.4875 62.8714 62.1742 62.9211C61.8609 62.9707 61.5814 63.1458 61.4002 63.4059C56.0415 71.1598 57.8386 81.7666 65.453 87.327C73.0175 92.9497 83.6882 91.5321 89.5189 84.13ZM67.218 85.9846C73.2178 90.4312 81.5738 89.8514 86.8979 84.619C87.1288 84.3934 87.1326 84.0238 86.9063 83.7935C86.6801 83.5632 86.3094 83.5595 86.0784 83.7851C81.154 88.5955 73.4559 89.1325 67.9076 85.0525C62.3593 80.9725 60.6006 73.4815 63.7563 67.3703C63.861 67.1842 63.8554 66.9559 63.7417 66.775C63.628 66.5942 63.4243 66.4896 63.2107 66.5024C62.997 66.5152 62.8073 66.6433 62.7161 66.8364C59.2731 73.4523 61.1847 81.5831 67.218 85.9846ZM68.208 81.9653C68.1708 81.4594 68.2973 80.9554 68.5636 80.5494C68.8847 80.094 69.2817 79.7162 69.7313 79.4377C70.5814 78.9045 71.0872 79.0698 71.3615 79.3018C72.2555 80.0541 71.5599 82.0853 71.145 82.7299C70.8153 83.2531 70.2888 83.5668 69.7254 83.576C69.4008 83.5783 69.0841 83.4608 68.8223 83.2411C68.466 82.9377 68.2419 82.4723 68.208 81.9653ZM70.7146 80.3039C70.2082 80.4707 69.7581 80.8097 69.4238 81.276C69.3143 81.4414 69.2614 81.6469 69.2752 81.8539C69.2841 82.0117 69.3512 82.1576 69.4597 82.2555C69.7496 82.441 70.1159 82.3293 70.2868 82.0033C70.5765 81.4995 70.7256 80.9069 70.7146 80.3039ZM74.2755 85.3632C74.7697 85.4158 75.2637 85.2621 75.6273 84.9426C75.9937 84.6281 76.2247 84.1979 76.2763 83.7336C76.363 83.0016 76.0448 81.0178 74.8108 80.8866C74.4232 80.8449 73.8586 80.9823 73.2975 81.8534C72.998 82.3127 72.7981 82.8233 72.7096 83.3558C72.65 83.8193 72.7737 84.2874 73.0571 84.6706C73.3374 85.0568 73.7819 85.3095 74.2755 85.3632ZM74.6744 82.0274C74.9794 82.5024 75.1236 83.0535 75.0878 83.6075C75.0691 83.7977 74.9765 83.9748 74.8276 84.1047C74.7171 84.2076 74.5636 84.2589 74.4089 84.2443C74.2558 84.2227 74.1196 84.1408 74.0344 84.0191C73.9204 83.8611 73.872 83.6691 73.8987 83.4796C73.9953 82.9328 74.2658 82.4265 74.6744 82.0274ZM78.8523 80.0699C79.9448 79.5866 81.206 81.207 81.5042 81.9057V81.904C81.9309 82.8091 81.5618 83.8961 80.678 84.3373C80.4756 84.4278 80.257 84.4746 80.036 84.4747C79.7888 84.4733 79.5448 84.4171 79.321 84.3099C78.8934 84.1048 78.5544 83.7466 78.3683 83.3032C78.0706 82.6056 77.7599 80.5532 78.8523 80.0699ZM79.7971 83.2548C79.9291 83.321 80.0824 83.3271 80.219 83.2717C80.5238 83.0868 80.6289 82.6877 80.4562 82.3715C80.2054 81.8582 79.8077 81.4349 79.3159 81.1575C79.1801 81.7146 79.2135 82.3007 79.4117 82.8379C79.4859 83.0204 79.623 83.1687 79.7971 83.2548ZM65.7206 70.1104C65.2569 70.0514 64.789 70.1751 64.4056 70.458C64.0194 70.7386 63.7667 71.183 63.7126 71.6765C63.6454 72.7072 64.3759 73.6016 65.3465 73.6769C65.432 73.6866 65.5179 73.6912 65.6039 73.6906C66.4614 73.6906 68.0767 73.3209 68.1956 72.2107C68.3207 70.976 66.453 70.1978 65.7206 70.1104ZM65.4698 72.4883C65.1194 72.4828 64.8369 72.182 64.8326 71.8099C64.8538 71.6566 64.9359 71.5203 65.058 71.4354C65.1874 71.3406 65.3414 71.2908 65.4986 71.2931C65.5313 71.2931 65.5639 71.2931 65.5977 71.299C66.1459 71.3957 66.6534 71.6669 67.053 72.0767C66.5763 72.3813 66.0235 72.5248 65.4682 72.4883H65.4698ZM64.7454 78.0856C64.5518 77.6497 64.5617 77.1525 64.7722 76.7243C64.978 76.2955 65.3363 75.9556 65.7796 75.7688C66.4761 75.469 68.528 75.1641 69.0116 76.254C69.4952 77.3439 67.8757 78.6152 67.1774 78.9145C66.9224 79.0248 66.647 79.0821 66.3685 79.0827C66.1683 79.0829 65.9694 79.0522 65.779 78.9917C65.3165 78.8524 64.9389 78.5214 64.7454 78.0856ZM67.3322 76.6356C66.9616 76.6294 66.5932 76.6911 66.2457 76.8176H66.2474C66.0644 76.8913 65.9154 77.0288 65.829 77.2038C65.7576 77.3349 65.7512 77.4909 65.8117 77.6273C65.8722 77.7636 65.9929 77.8652 66.1392 77.9029C66.3282 77.9589 66.5315 77.9455 66.7112 77.8652C67.2244 77.6134 67.6477 77.2144 67.9251 76.7209C67.7352 76.654 67.5336 76.625 67.3322 76.6356Z" fill="#FFB61D"/>
<path fill-rule="evenodd" clip-rule="evenodd" d="M276.688 253.978C276.491 253.732 276.404 253.416 276.448 253.105C276.49 252.79 276.659 252.506 276.914 252.317C276.914 252.317 280.14 250.079 280.331 250.162C280.522 250.246 277.6 253.251 277.6 253.251C283.083 260.049 292.954 261.325 299.988 256.145C307.022 250.965 308.721 241.168 303.842 233.925L282.478 250.069C282.219 250.26 281.854 250.205 281.663 249.946C281.472 249.687 303.146 232.991 303.146 232.991C303.399 232.799 303.719 232.719 304.032 232.769C304.346 232.819 304.625 232.994 304.806 233.254C310.165 241.008 308.368 251.615 300.754 257.175C293.189 262.798 282.518 261.38 276.688 253.978ZM298.989 255.833C292.989 260.279 284.633 259.699 279.309 254.467C279.078 254.241 279.074 253.872 279.3 253.641C279.527 253.411 279.897 253.407 280.128 253.633C285.053 258.443 292.751 258.98 298.299 254.9C303.847 250.82 305.606 243.329 302.45 237.218C302.346 237.032 302.351 236.804 302.465 236.623C302.579 236.442 302.782 236.338 302.996 236.35C303.21 236.363 303.399 236.491 303.491 236.684C306.934 243.3 305.022 251.431 298.989 255.833ZM297.999 251.813C298.036 251.307 297.909 250.803 297.643 250.397C297.322 249.942 296.925 249.564 296.475 249.286C295.625 248.752 295.119 248.918 294.845 249.15C293.951 249.902 294.647 251.933 295.062 252.578C295.391 253.101 295.918 253.415 296.481 253.424C296.806 253.426 297.123 253.309 297.384 253.089C297.741 252.786 297.965 252.32 297.999 251.813ZM295.492 250.152C295.998 250.319 296.449 250.658 296.783 251.124C296.892 251.289 296.945 251.495 296.931 251.702C296.923 251.86 296.855 252.006 296.747 252.103C296.457 252.289 296.091 252.177 295.92 251.851C295.63 251.347 295.481 250.755 295.492 250.152ZM291.931 255.211C291.437 255.264 290.943 255.11 290.579 254.791C290.213 254.476 289.982 254.046 289.93 253.582C289.844 252.85 290.162 250.866 291.396 250.735C291.783 250.693 292.348 250.83 292.909 251.701C293.209 252.161 293.409 252.671 293.497 253.204C293.557 253.667 293.433 254.135 293.15 254.519C292.869 254.905 292.425 255.157 291.931 255.211ZM291.532 251.875C291.227 252.35 291.083 252.901 291.119 253.455C291.138 253.646 291.23 253.823 291.379 253.953C291.49 254.056 291.643 254.107 291.798 254.092C291.951 254.071 292.087 253.989 292.172 253.867C292.286 253.709 292.335 253.517 292.308 253.328C292.211 252.781 291.941 252.274 291.532 251.875ZM287.354 249.918C286.262 249.435 285.001 251.055 284.702 251.754V251.752C284.276 252.657 284.645 253.744 285.529 254.185C285.731 254.276 285.95 254.323 286.171 254.323C286.418 254.321 286.662 254.265 286.886 254.158C287.313 253.953 287.652 253.595 287.838 253.151C288.136 252.454 288.447 250.401 287.354 249.918ZM286.41 253.103C286.278 253.169 286.124 253.175 285.988 253.12C285.683 252.935 285.578 252.536 285.75 252.22C286.001 251.706 286.399 251.283 286.891 251.006C287.027 251.563 286.993 252.149 286.795 252.686C286.721 252.868 286.584 253.017 286.41 253.103ZM300.486 239.958C300.95 239.899 301.418 240.023 301.801 240.306C302.187 240.587 302.44 241.031 302.494 241.524C302.561 242.555 301.831 243.45 300.86 243.525C300.775 243.535 300.689 243.539 300.603 243.539C299.745 243.539 298.13 243.169 298.011 242.059C297.886 240.824 299.754 240.046 300.486 239.958ZM300.737 242.336C301.087 242.331 301.37 242.03 301.374 241.658C301.353 241.505 301.271 241.368 301.149 241.283C301.019 241.189 300.865 241.139 300.708 241.141C300.675 241.141 300.643 241.141 300.609 241.147C300.061 241.244 299.553 241.515 299.154 241.925C299.63 242.229 300.183 242.373 300.739 242.336H300.737ZM301.461 247.934C301.655 247.498 301.645 247 301.434 246.572C301.229 246.143 300.87 245.804 300.427 245.617C299.731 245.317 297.679 245.012 297.195 246.102C296.711 247.192 298.331 248.463 299.029 248.762C299.284 248.873 299.56 248.93 299.838 248.931C300.038 248.931 300.237 248.9 300.428 248.84C300.89 248.7 301.268 248.369 301.461 247.934ZM298.875 246.484C299.245 246.477 299.613 246.539 299.961 246.666H299.959C300.142 246.739 300.291 246.877 300.378 247.052C300.449 247.183 300.455 247.339 300.395 247.475C300.334 247.612 300.214 247.713 300.067 247.751C299.878 247.807 299.675 247.793 299.495 247.713C298.982 247.461 298.559 247.062 298.282 246.569C298.471 246.502 298.673 246.473 298.875 246.484Z" fill="#FFB61D"/>
<circle cx="164.007" cy="104.695" r="3.14533" fill="#FFB61D"/>
<path fill-rule="evenodd" clip-rule="evenodd" d="M156.261 262.051C156.66 263.047 155.349 267.674 151.928 270.99C148.507 274.305 144.065 275.092 143.701 274.184C143.337 273.275 148.315 271.489 151.456 268.252C154.598 265.015 155.862 261.055 156.261 262.051Z" fill="#00160A"/>
</svg>
